<svg width="32" height="32" viewBox="0 0 32 32" fill="none" xmlns="http://www.w3.org/2000/svg">
<path d="M16 32C24.8366 32 32 24.8366 32 16C32 7.16344 24.8366 0 16 0C7.16344 0 0 7.16344 0 16C0 24.8366 7.16344 32 16 32Z" fill="url(#paint0_linear_26163_90719)"/>
<path d="M23.003 22.3757L17.5927 9.29525C17.2876 8.61896 16.834 8.28906 16.236 8.28906H15.7577C15.1597 8.28906 14.7061 8.61896 14.401 9.29525L12.0463 14.9942H10.2649C9.73295 14.9983 9.29996 15.4272 9.29583 15.9633V15.9757C9.29996 16.5076 9.73295 16.9406 10.2649 16.9447H11.2216L8.97418 22.3757C8.93295 22.4953 8.9082 22.619 8.9082 22.7468C8.9082 23.052 9.00305 23.2911 9.17212 23.4767C9.34119 23.6623 9.58449 23.753 9.88965 23.753C10.0917 23.7489 10.2855 23.687 10.4463 23.5674C10.6195 23.4478 10.7391 23.2746 10.834 23.0767L13.3082 16.9406H15.0237C15.5556 16.9365 15.9886 16.5076 15.9927 15.9715V15.9468C15.9886 15.4148 15.5556 14.9819 15.0237 14.9777H14.1082L15.9969 10.2726L21.1433 23.0726C21.2381 23.2705 21.3577 23.4437 21.5309 23.5633C21.6917 23.6829 21.8896 23.7447 22.0876 23.7489C22.3927 23.7489 22.6319 23.6581 22.8051 23.4726C22.9783 23.287 23.069 23.0478 23.069 22.7427C23.0732 22.619 23.0525 22.4911 23.003 22.3757Z" fill="white"/>
<defs>
<linearGradient id="paint0_linear_26163_90719" x1="27.9294" y1="5.96233" x2="4.12137" y2="25.9943" gradientUnits="userSpaceOnUse">
<stop stop-color="#B6509E"/>
<stop offset="1" stop-color="#2EBAC6"/>
</linearGradient>
</defs>
</svg>
