<svg width="32" height="32" viewBox="0 0 32 32" fill="none" xmlns="http://www.w3.org/2000/svg">
<g clip-path="url(#clip0_836_15880)">
<path d="M16 32C24.8366 32 32 24.8366 32 16C32 7.16344 24.8366 0 16 0C7.16345 0 0 7.16344 0 16C0 24.8366 7.16345 32 16 32Z" fill="black"/>
<path d="M20.9179 13.0278H19.3268C19.15 13.0278 18.9732 12.9476 18.8446 12.8192L18.2018 12.0969C18.0089 11.8882 17.7036 11.8722 17.4786 12.0487L17.4304 12.0969L16.8839 12.7229C16.7071 12.9315 16.4339 13.0439 16.1607 13.0439H7.46607C7.225 13.7501 7.06429 14.5045 7 15.2589H15.2286C15.3732 15.2589 15.5179 15.1947 15.6143 15.0984L16.3857 14.2959C16.4821 14.1996 16.6107 14.1354 16.7554 14.1354H16.7875C16.9321 14.1354 17.0768 14.1996 17.1732 14.3119L17.8161 15.0342C17.9446 15.1787 18.1214 15.2589 18.2982 15.2589H25C24.9357 14.5045 24.775 13.7501 24.5339 13.0439H20.9179V13.0278ZM15.6464 17.4579L15.0036 16.7356C14.8107 16.5269 14.5054 16.5109 14.2804 16.6875L14.2321 16.7356L13.6696 17.3616C13.4929 17.5703 13.2357 17.6826 12.9625 17.6826H7.12857C7.27321 18.4531 7.53036 19.2074 7.86786 19.9297H11.9661C12.1107 19.9297 12.2393 19.8655 12.3518 19.7692L13.1232 18.9667C13.2196 18.8704 13.3482 18.8062 13.4929 18.8062H13.525C13.6696 18.8062 13.8143 18.8704 13.9107 18.9827L14.5536 19.705C14.6821 19.8495 14.8589 19.9297 15.0357 19.9297H24.1321C24.4696 19.2235 24.7268 18.4691 24.8714 17.6826H16.1286C15.9357 17.6826 15.7589 17.6024 15.6464 17.4579ZM18.7964 10.4597L19.5679 9.65716C19.6643 9.56085 19.7929 9.49665 19.9375 9.49665H19.9696C20.1143 9.49665 20.2589 9.56085 20.3554 9.65716L20.9982 10.3794C21.1268 10.5239 21.3036 10.5881 21.4804 10.5881H23.2161C20.1946 6.60748 14.5214 5.82099 10.5196 8.82251C9.86071 9.32009 9.26607 9.91397 8.75179 10.5881H18.4107C18.5714 10.6202 18.7 10.556 18.7964 10.4597ZM12.5768 22.1448C12.3839 22.1448 12.2071 22.0645 12.0946 21.9361L11.4518 21.2138C11.2589 21.0051 10.9375 20.9891 10.7286 21.1817L10.6964 21.2138L10.1339 21.8398C9.95714 22.0485 9.7 22.1608 9.42679 22.1608H9.39464C12.7857 25.7883 18.5232 25.9649 22.1714 22.546C22.3161 22.4176 22.4446 22.2732 22.5893 22.1287H12.5768V22.1448Z" fill="white"/>
</g>
<defs>
<clipPath id="clip0_836_15880">
<rect width="32" height="32" fill="white"/>
</clipPath>
</defs>
</svg>
