<svg width="32" height="32" viewBox="0 0 32 32" fill="none" xmlns="http://www.w3.org/2000/svg">
<g clip-path="url(#clip0_554_15904)">
<path d="M16 32C24.8366 32 32 24.8366 32 16C32 7.16344 24.8366 0 16 0C7.16344 0 0 7.16344 0 16C0 24.8366 7.16344 32 16 32Z" fill="#020212"/>
<path d="M15.9986 6.04834L18.4662 8.57542L12.2525 14.7891L9.78491 12.3214L15.9986 6.04834Z" fill="#F0B90B"/>
<path fill-rule="evenodd" clip-rule="evenodd" d="M15.9987 6.00598L18.5079 8.57571L12.2525 14.8312L9.74292 12.3216L15.9987 6.00598ZM9.82681 12.3214L12.2525 14.7471L18.4243 8.57521L15.9984 6.09078L9.82681 12.3214Z" fill="#F0B90B"/>
<path d="M19.7446 9.79443L22.2122 12.3215L12.2525 22.2812L9.78491 19.8136L19.7446 9.79443Z" fill="#F0B90B"/>
<path fill-rule="evenodd" clip-rule="evenodd" d="M19.7447 9.75183L22.254 12.3215L12.2525 22.323L9.74289 19.8134L19.7447 9.75183ZM9.82685 19.8133L12.2525 22.2389L22.1704 12.321L19.7444 9.83655L9.82685 19.8133Z" fill="#F0B90B"/>
<path d="M8.50647 13.5403L10.9741 16.0674L8.50647 18.535L6.03885 16.0674L8.50647 13.5403Z" fill="#F0B90B"/>
<path fill-rule="evenodd" clip-rule="evenodd" d="M8.50649 13.4977L11.0159 16.0676L8.50649 18.577L5.99707 16.0676L8.50649 13.4977ZM6.08066 16.0671L8.50649 18.4929L10.9323 16.0671L8.50649 13.5828L6.08066 16.0671Z" fill="#F0B90B"/>
<path d="M23.4906 13.5403L25.9582 16.0674L15.9986 26.027L13.5309 23.5594L23.4906 13.5403Z" fill="#F0B90B"/>
<path fill-rule="evenodd" clip-rule="evenodd" d="M23.4908 13.4979L26 16.0676L15.9985 26.0691L13.4889 23.5595L23.4908 13.4979ZM13.5729 23.5594L15.9985 25.985L25.9164 16.0671L23.4904 13.5826L13.5729 23.5594Z" fill="#F0B90B"/>
</g>
<defs>
<clipPath id="clip0_554_15904">
<rect width="32" height="32" fill="white"/>
</clipPath>
</defs>
</svg>
