<svg width="32" height="32" viewBox="0 0 32 32" fill="none" xmlns="http://www.w3.org/2000/svg">
<g clip-path="url(#clip0_554_15868)">
<g filter="url(#filter0_i_554_15868)">
<path d="M16.0247 31.7506C24.7168 31.7506 31.763 24.7044 31.763 16.0123C31.763 7.32034 24.7168 0.274048 16.0247 0.274048C7.33271 0.274048 0.286438 7.32034 0.286438 16.0123C0.286438 24.7044 7.33271 31.7506 16.0247 31.7506Z" fill="#00D395"/>
</g>
<path d="M16.0248 30.5775C24.0689 30.5775 30.59 24.0565 30.59 16.0123C30.59 7.96821 24.0689 1.44714 16.0248 1.44714C7.98066 1.44714 1.45959 7.96821 1.45959 16.0123C1.45959 24.0565 7.98066 30.5775 16.0248 30.5775Z" fill="url(#paint0_linear_554_15868)"/>
<path fill-rule="evenodd" clip-rule="evenodd" d="M9.38495 21.2934C8.91421 21.0055 8.62628 20.4927 8.62628 19.9421V16.8675C8.62628 16.7498 8.65781 16.6363 8.71665 16.5355C8.89948 16.2202 9.30508 16.113 9.62035 16.298L16.5598 20.3435C16.9654 20.581 17.2155 21.0139 17.2155 21.4846V24.6706C17.2155 24.8156 17.1755 24.9606 17.0999 25.0846C16.8708 25.4587 16.3832 25.5763 16.0091 25.3473L9.38495 21.2934ZM19.729 15.4553C20.1346 15.6927 20.3847 16.1257 20.3847 16.5964V23.0608C20.3847 23.252 20.2817 23.4286 20.1157 23.521L18.5962 24.3764C18.5773 24.3869 18.5563 24.3953 18.5353 24.4016V20.8121C18.5353 20.3477 18.2915 19.9169 17.8922 19.6773L11.7976 16.0311V11.9793C11.7976 11.8616 11.8291 11.7481 11.8879 11.6472C12.0708 11.332 12.4764 11.2248 12.7916 11.4098L19.729 15.4553ZM22.7658 10.6805C23.1735 10.9159 23.4236 11.353 23.4236 11.8238V21.2661C23.4236 21.4594 23.3164 21.638 23.1461 21.7305L21.7066 22.5081V15.9344C21.7066 15.47 21.4628 15.0413 21.0656 14.8017L14.8365 11.0651V7.22137C14.8365 7.1037 14.868 6.9902 14.9247 6.88933C15.1076 6.5741 15.5132 6.4669 15.8284 6.64977L22.7658 10.6805Z" fill="#F9FAFB"/>
<path d="M16.0123 32C24.8421 32 32 24.8421 32 16.0124C32 7.18267 24.8421 0.0247803 16.0123 0.0247803C7.18261 0.0247803 0.0247192 7.18267 0.0247192 16.0124C0.0247192 24.8421 7.18261 32 16.0123 32Z" fill="#070A0E"/>
<path fill-rule="evenodd" clip-rule="evenodd" d="M9.26707 21.377C8.78887 21.0845 8.4964 20.5636 8.4964 20.0043V16.881C8.4964 16.7614 8.5284 16.6462 8.5882 16.5437C8.77393 16.2235 9.18597 16.1146 9.5062 16.3025L16.5556 20.412C16.9676 20.6533 17.2216 21.0931 17.2216 21.5713V24.8077C17.2216 24.955 17.1811 25.1023 17.1042 25.2282C16.8715 25.6082 16.3762 25.7278 15.9962 25.4951L9.26707 21.377ZM19.775 15.4464C20.187 15.6876 20.4411 16.1274 20.4411 16.6056V23.1724C20.4411 23.3667 20.3364 23.546 20.1678 23.6399L18.6243 24.5088C18.6051 24.5195 18.5837 24.528 18.5624 24.5345V20.8881C18.5624 20.4163 18.3147 19.9787 17.9091 19.7353L11.7179 16.0313V11.9153C11.7179 11.7958 11.7499 11.6805 11.8097 11.578C11.9955 11.2578 12.4075 11.1489 12.7277 11.3368L19.775 15.4464ZM22.8599 10.596C23.274 10.8351 23.5281 11.2792 23.5281 11.7574V21.3492C23.5281 21.5456 23.4192 21.7271 23.2463 21.821L21.7839 22.611V15.9331C21.7839 15.4613 21.5362 15.0258 21.1328 14.7824L14.805 10.9867V7.08208C14.805 6.96251 14.837 6.84725 14.8946 6.74475C15.0804 6.42455 15.4924 6.31565 15.8126 6.50138L22.8599 10.596Z" fill="#00D395"/>
</g>
<defs>
<filter id="filter0_i_554_15868" x="0.286438" y="0.0443399" width="31.4766" height="31.7063" filterUnits="userSpaceOnUse" color-interpolation-filters="sRGB">
<feFlood flood-opacity="0" result="BackgroundImageFix"/>
<feBlend mode="normal" in="SourceGraphic" in2="BackgroundImageFix" result="shape"/>
<feColorMatrix in="SourceAlpha" type="matrix" values="0 0 0 0 0 0 0 0 0 0 0 0 0 0 0 0 0 0 127 0" result="hardAlpha"/>
<feOffset dy="-0.689125"/>
<feGaussianBlur stdDeviation="0.114854"/>
<feComposite in2="hardAlpha" operator="arithmetic" k2="-1" k3="1"/>
<feColorMatrix type="matrix" values="0 0 0 0 0.0699479 0 0 0 0 0.9875 0 0 0 0 0.717887 0 0 0 1 0"/>
<feBlend mode="normal" in2="shape" result="effect1_innerShadow_554_15868"/>
</filter>
<linearGradient id="paint0_linear_554_15868" x1="16.0248" y1="1.44714" x2="16.0248" y2="30.5775" gradientUnits="userSpaceOnUse">
<stop stop-color="#141E27"/>
<stop offset="1" stop-color="#141E27"/>
</linearGradient>
<clipPath id="clip0_554_15868">
<rect width="32" height="32" fill="white"/>
</clipPath>
</defs>
</svg>
