<svg width="32" height="32" viewBox="0 0 32 32" fill="none" xmlns="http://www.w3.org/2000/svg">
<g clip-path="url(#clip0_769_16005)">
<path fill-rule="evenodd" clip-rule="evenodd" d="M16 32C24.8366 32 32 24.8366 32 16C32 7.16344 24.8366 0 16 0C7.16344 0 0 7.16344 0 16C0 24.8366 7.16344 32 16 32Z" fill="#3A3A3A"/>
<g clip-path="url(#clip1_769_16005)">
<path d="M18.2206 10.3148H17.0934V12.1024H18.2206V10.3148Z" fill="#1682FE"/>
<path d="M14.9855 7H13.8583V8.7876H14.9855V7Z" fill="#1682FE"/>
<path d="M11.7504 8.70471H10.6232V10.4923H11.7504V8.70471Z" fill="#60D8A4"/>
<path d="M10.1385 15.5H9V20.6024H10.1385V15.5Z" fill="#F4BB3B"/>
<path d="M10.1385 10.3976H9V15.5H10.1385V10.3976Z" fill="#60D8A4"/>
<path d="M19.8325 12.0195H18.7053V13.8071H19.8325V12.0195Z" fill="#1682FE"/>
<path d="M19.8325 17.1929H18.7053V18.9805H19.8325V17.1929Z" fill="#FF5A5A"/>
<path d="M18.2206 18.8976H17.0934V20.6852H18.2206V18.8976Z" fill="#FF5A5A"/>
<path d="M14.9855 22.2124H13.8583V24H14.9855V22.2124Z" fill="#FF5A5A"/>
<path d="M11.7504 20.5077H10.6232V22.2953H11.7504V20.5077Z" fill="#F4BB3B"/>
<path d="M23 13.7953V10.3976H21.3768V8.70474H18.1417V7H14.9066V8.70474H11.6715V10.4095H10.0483V20.6024H11.6715V22.3071H14.9066V24.0118H18.1417V22.3071H21.3768V20.6024H23V17.1929H19.7649V18.8976H18.1417V20.6024H14.9066V18.8976H13.2947V12.1024H14.9178V10.3976H18.1529V12.1024H19.7761V13.8071H23V13.7953Z" fill="white"/>
</g>
</g>
<defs>
<clipPath id="clip0_769_16005">
<rect width="32" height="32" fill="white"/>
</clipPath>
<clipPath id="clip1_769_16005">
<rect width="14" height="17" fill="white" transform="translate(9 7)"/>
</clipPath>
</defs>
</svg>
