<svg width="32" height="32" viewBox="0 0 32 32" fill="none" xmlns="http://www.w3.org/2000/svg">
<g clip-path="url(#clip0_359_15513)">
<path d="M32 16C32 7.16344 24.8366 0 16 0C7.16344 0 0 7.16344 0 16C0 24.8366 7.16344 32 16 32C24.8366 32 32 24.8366 32 16Z" fill="url(#paint0_linear_359_15513)"/>
<path d="M9.05107 10.4431C9.24749 10.0785 9.53088 9.76764 9.87641 9.53801L15.6744 5.50403L9.73363 15.2916C9.73363 15.2916 9.21459 14.4176 9.01209 13.9754C8.75987 13.4194 8.63264 12.8151 8.63936 12.205C8.64608 11.5948 8.78662 10.9934 9.05107 10.4431ZM6.65817 17.1948C6.72365 18.1308 6.98905 19.0421 7.43667 19.8675C7.88422 20.6931 8.50368 21.4137 9.2535 21.9813L15.6666 26.4368C15.6666 26.4368 11.6541 20.6755 8.26989 14.9426C7.92723 14.3369 7.69689 13.6747 7.58989 12.9876C7.54253 12.6765 7.54253 12.36 7.58989 12.0489C7.50163 12.2119 7.33037 12.5454 7.33037 12.5454C6.9872 13.2427 6.75347 13.9884 6.63737 14.7564C6.57056 15.5682 6.57753 16.3843 6.65817 17.1948ZM23.0088 17.9706C22.8011 17.5284 22.2872 16.6544 22.2872 16.6544L16.3569 26.4368L22.1549 22.4054C22.5004 22.1758 22.7838 21.865 22.9802 21.5004C23.2447 20.95 23.3851 20.3486 23.3919 19.7385C23.3987 19.1283 23.2714 18.5241 23.0191 17.968L23.0088 17.9706ZM25.3627 14.7486C25.2972 13.8126 25.0318 12.9013 24.5843 12.0759C24.1366 11.2504 23.5172 10.5297 22.7674 9.96214L16.3647 5.50403C16.3647 5.50403 20.3745 11.2654 23.7614 16.9983C24.1031 17.6042 24.3325 18.2664 24.4388 18.9532C24.4861 19.2643 24.4861 19.5808 24.4388 19.8919C24.527 19.729 24.6983 19.3954 24.6983 19.3954C25.0415 18.6981 25.2752 17.9525 25.3912 17.1845C25.4589 16.3728 25.4529 15.5566 25.3731 14.746L25.3627 14.7486Z" fill="white"/>
</g>
<defs>
<linearGradient id="paint0_linear_359_15513" x1="29.664" y1="42.432" x2="-3.51231" y2="-2.08801" gradientUnits="userSpaceOnUse">
<stop stop-color="#DE82FF"/>
<stop offset="1" stop-color="#7F6AFF"/>
</linearGradient>
<clipPath id="clip0_359_15513">
<rect width="32" height="32" fill="white"/>
</clipPath>
</defs>
</svg>
