<svg width="32" height="32" viewBox="0 0 32 32" fill="none" xmlns="http://www.w3.org/2000/svg">
<g clip-path="url(#clip0_769_16019)">
<path d="M16 32C24.8366 32 32 24.8366 32 16C32 7.16344 24.8366 0 16 0C7.16345 0 0 7.16344 0 16C0 24.8366 7.16345 32 16 32Z" fill="black"/>
<path d="M8.90883 6.88195L7.83612 7.95466L9.19331 9.31184L10.5535 10.669L10.4409 11.0009C10.2957 11.4365 10.2364 11.801 10.2364 12.284C10.2364 13.8575 11.0602 15.1969 12.5181 15.9941C13.1049 16.3141 14.1124 16.6756 15.2295 16.9631C17.4105 17.5231 17.7454 17.6209 18.175 17.8224C18.7618 18.101 19.0522 18.4032 19.1737 18.8596C19.227 19.0581 19.224 19.5026 19.1707 19.716C19.0344 20.2345 18.5929 20.7561 18.0447 21.0405C17.3038 21.4287 16.0148 21.5354 15.0428 21.2865C14.6813 21.1976 14.1687 20.9457 13.9109 20.7353C13.3864 20.3027 12.9774 19.5559 12.7967 18.6936C12.767 18.5573 12.7433 18.4417 12.7404 18.4358C12.7315 18.424 9.69707 18.7203 9.68225 18.7381C9.67039 18.747 9.67929 18.8714 9.70003 19.0137C9.79486 19.6982 10.0349 20.5131 10.3105 21.0791L10.4705 21.408L9.15182 22.7267L7.83612 24.0453L8.9118 25.121L9.98451 26.1937L11.3447 24.8335L12.7018 23.4764L12.9359 23.5742C14.1746 24.0957 16.0326 24.2587 17.8343 23.9979C18.2669 23.9357 18.8922 23.7875 19.2211 23.666L19.4167 23.5949L20.7175 24.8958L22.0155 26.1937L23.0882 25.121L24.1638 24.0453L22.9578 22.8393L21.7547 21.6362L21.9058 21.328C22.2199 20.6968 22.3503 20.1604 22.377 19.4226C22.4244 18.015 22.0599 16.9542 21.2302 16.08C20.3649 15.1703 19.39 14.7376 16.6371 14.0442C14.6961 13.5582 13.8605 13.2234 13.5286 12.8026C13.1997 12.3877 13.17 11.8069 13.4575 11.3832C13.6234 11.1372 14.0324 10.8735 14.4769 10.7253C14.9776 10.5564 15.8192 10.4794 16.4445 10.5446C17.7631 10.6838 18.4269 11.2469 18.7173 12.4796C18.7529 12.6307 18.7855 12.7582 18.7884 12.7641C18.7944 12.773 20.9398 12.6959 21.5828 12.6633L21.9503 12.6455L21.9295 12.3877C21.888 11.8632 21.7843 11.395 21.5947 10.9061L21.491 10.6305L22.8274 9.2911L24.1638 7.95466L23.0911 6.87898L22.0155 5.80627L20.6642 7.15753L19.31 8.51176L18.9811 8.3873C18.1721 8.08504 17.3898 7.95169 16.237 7.9191C14.9776 7.8865 13.8723 8.04948 13.0248 8.39323L12.7107 8.52065L11.3476 7.16346L9.98451 5.80627L8.90883 6.88195Z" fill="white"/>
</g>
<defs>
<clipPath id="clip0_769_16019">
<rect width="32" height="32" fill="white"/>
</clipPath>
</defs>
</svg>
