<svg width="32" height="32" viewBox="0 0 32 32" fill="none" xmlns="http://www.w3.org/2000/svg">
<g clip-path="url(#clip0_710_15909)">
<path fill-rule="evenodd" clip-rule="evenodd" d="M16 32C24.8366 32 32 24.8366 32 16C32 7.16344 24.8366 0 16 0C7.16344 0 0 7.16344 0 16C0 24.8366 7.16344 32 16 32Z" fill="white"/>
<path d="M25.9385 21.4127L16.0152 6.95898L6.06147 21.4127H19.9293L16.0152 15.8964L14.0736 18.7626H12.0101L16.0165 12.9999L21.8082 21.4134L25.9385 21.4127Z" fill="url(#paint0_linear_710_15909)"/>
<path fill-rule="evenodd" clip-rule="evenodd" d="M16 31.5C24.5604 31.5 31.5 24.5604 31.5 16C31.5 7.43959 24.5604 0.5 16 0.5C7.43959 0.5 0.5 7.43959 0.5 16C0.5 24.5604 7.43959 31.5 16 31.5ZM32 16C32 24.8366 24.8366 32 16 32C7.16344 32 0 24.8366 0 16C0 7.16344 7.16344 0 16 0C24.8366 0 32 7.16344 32 16Z" fill="#E6E9EC"/>
</g>
<defs>
<linearGradient id="paint0_linear_710_15909" x1="16.7156" y1="7.3348" x2="10.5424" y2="23.084" gradientUnits="userSpaceOnUse">
<stop stop-color="#03D1CF" stop-opacity="0.988"/>
<stop offset="1" stop-color="#4E09F8"/>
</linearGradient>
<clipPath id="clip0_710_15909">
<rect width="32" height="32" fill="white"/>
</clipPath>
</defs>
</svg>
