<svg width="32" height="32" viewBox="0 0 32 32" fill="none" xmlns="http://www.w3.org/2000/svg">
<g clip-path="url(#clip0_554_15783)">
<path fill-rule="evenodd" clip-rule="evenodd" d="M16 32C24.8366 32 32 24.8366 32 16C32 7.16344 24.8366 0 16 0C7.16344 0 0 7.16344 0 16C0 24.8366 7.16344 32 16 32Z" fill="#604EE4"/>
<g clip-path="url(#clip1_554_15783)">
<path fill-rule="evenodd" clip-rule="evenodd" d="M14.9394 17C12.7526 17 10.9798 15.2092 10.9798 13C10.9798 10.7908 12.7526 8.99999 14.9394 8.99999C17.1263 8.99999 18.899 10.7908 18.899 13C18.899 15.2092 17.1263 17 14.9394 17ZM14.9394 7C18.2196 7 20.8787 9.68629 20.8787 13C20.8787 16.3137 18.2196 19 14.9394 19C11.6592 19 9 16.3137 9 13C9 9.68629 11.6592 7 14.9394 7ZM20.5889 19.2928C20.9755 19.6834 20.9755 20.3164 20.5889 20.707L16.6292 24.7071C16.2426 25.0976 15.6159 25.0976 15.2293 24.7071C14.8427 24.3165 14.8427 23.6835 15.2293 23.2929L19.189 19.2928C19.5756 18.9023 20.2023 18.9023 20.5889 19.2928ZM22.8585 8C22.8585 8.55236 22.4154 8.99999 21.8688 8.99999C21.322 8.99999 20.8789 8.55236 20.8789 8C20.8789 7.44763 21.322 7 21.8688 7C22.4154 7 22.8585 7.44763 22.8585 8Z" fill="white"/>
</g>
</g>
<defs>
<clipPath id="clip0_554_15783">
<rect width="32" height="32" fill="white"/>
</clipPath>
<clipPath id="clip1_554_15783">
<rect width="14" height="18" fill="white" transform="translate(9 7)"/>
</clipPath>
</defs>
</svg>
