<svg width="32" height="32" viewBox="0 0 32 32" fill="none" xmlns="http://www.w3.org/2000/svg">
<path d="M16 32C24.8366 32 32 24.8366 32 16C32 7.16344 24.8366 0 16 0C7.16344 0 0 7.16344 0 16C0 24.8366 7.16344 32 16 32Z" fill="#282E5B"/>
<g clip-path="url(#clip0_299_15540)">
<path d="M18.1955 11.5743C18.1955 8.27409 16.7 5.43082 15.5545 4.49999C15.5545 4.49999 15.475 4.44921 15.475 4.58461C15.3795 10.965 12.3409 12.7082 10.6545 15.0268C6.78864 20.4087 10.3841 26.2984 14.0432 27.3815C16.0955 27.9908 13.5659 26.2984 13.2477 22.7443C12.8659 18.4286 18.1955 15.1453 18.1955 11.5743Z" fill="white"/>
<path d="M20.2 13.7576C20.1841 13.7406 20.1523 13.7406 20.1205 13.7576C20.1205 13.7576 20.1205 13.7576 20.1045 13.7745C20.0409 14.5699 19.2136 16.2962 18.1795 17.8701C14.6636 23.2182 16.6682 25.7907 17.7977 27.1785C18.45 27.9908 17.7977 27.1785 19.4364 26.3492C19.5636 26.2815 22.6182 24.5552 22.9523 20.6457C23.2864 16.8378 21.0114 14.4515 20.2 13.7576Z" fill="white"/>
</g>
<defs>
<clipPath id="clip0_299_15540">
<rect width="14" height="23" fill="white" transform="translate(9 4.5)"/>
</clipPath>
</defs>
</svg>
