<svg width="32" height="32" viewBox="0 0 32 32" fill="none" xmlns="http://www.w3.org/2000/svg">
<path d="M16 32C24.8366 32 32 24.8366 32 16C32 7.16345 24.8366 0 16 0C7.16345 0 0 7.16345 0 16C0 24.8366 7.16345 32 16 32Z" fill="#31CB9E"/>
<path d="M14.8085 15.9984L23.3192 20.697C23.3876 20.7366 23.4657 20.758 23.5455 20.7588C23.6253 20.7597 23.7039 20.7401 23.7732 20.702C23.8425 20.664 23.9001 20.6088 23.9399 20.5421C23.9798 20.4755 24.0005 20.3998 24 20.3229V11.6673C24.001 11.5903 23.9805 11.5144 23.9407 11.4476C23.9008 11.3808 23.8431 11.3256 23.7735 11.2877C23.7039 11.2498 23.625 11.2306 23.5451 11.2321C23.4651 11.2337 23.3871 11.2559 23.3192 11.2965L14.8085 15.9984Z" fill="white"/>
<path d="M23.1387 9.2163L17.3208 5.09191C17.2606 5.04734 17.1899 5.01773 17.115 5.0057C17.0401 4.99367 16.9633 4.99959 16.8913 5.02293C16.8193 5.04627 16.7544 5.08632 16.7022 5.13955C16.6501 5.19278 16.6124 5.25755 16.5923 5.32815L14.4681 14.5153L23.0877 9.92174C23.1532 9.88922 23.209 9.84095 23.2496 9.78159C23.2902 9.72224 23.3142 9.6538 23.3193 9.58288C23.3245 9.51197 23.3105 9.44097 23.2789 9.37676C23.2473 9.31254 23.199 9.25728 23.1387 9.2163Z" fill="white"/>
<path d="M17.314 26.9015L23.1387 22.7771C23.1998 22.7358 23.2488 22.68 23.2811 22.6151C23.3134 22.5502 23.3278 22.4784 23.323 22.4066C23.3182 22.3348 23.2944 22.2654 23.2538 22.205C23.2131 22.1447 23.1571 22.0954 23.0911 22.0618L14.4681 17.4683L16.5923 26.6554C16.61 26.7268 16.6457 26.7929 16.6964 26.8476C16.747 26.9024 16.811 26.9442 16.8825 26.9692C16.9541 26.9943 17.031 27.0018 17.1063 26.9911C17.1816 26.9805 17.253 26.9519 17.314 26.9081" fill="white"/>
<path d="M12.5958 15.8278L14.8085 5.85312C14.8254 5.77047 14.8163 5.68483 14.7825 5.60717C14.7486 5.52952 14.6914 5.46338 14.6183 5.41721C14.5452 5.37105 14.4594 5.34697 14.372 5.34806C14.2846 5.34914 14.1995 5.37534 14.1277 5.4233L8.45959 9.6133C8.31606 9.71943 8.19991 9.85608 8.12019 10.0126C8.04047 10.1691 7.99935 10.3413 8.00001 10.5156V21.1465C7.99723 21.3231 8.03734 21.4978 8.11714 21.6567C8.19694 21.8157 8.31421 21.9545 8.45959 22.0619L14.1004 26.2388C14.1723 26.2868 14.2574 26.313 14.3448 26.314C14.4322 26.3151 14.5179 26.291 14.591 26.2449C14.6642 26.1987 14.7213 26.1326 14.7552 26.0549C14.7891 25.9773 14.7982 25.8916 14.7813 25.809L12.5958 15.8278Z" fill="white"/>
</svg>
