<svg width="32" height="32" viewBox="0 0 32 32" fill="none" xmlns="http://www.w3.org/2000/svg">
<g clip-path="url(#clip0_1027_16794)">
<path d="M16 32C24.8366 32 32 24.8366 32 16C32 7.16344 24.8366 0 16 0C7.16345 0 0 7.16344 0 16C0 24.8366 7.16345 32 16 32Z" fill="#161032"/>
<path d="M25.0799 9.53552C24.8763 8.75149 24.2219 7.96746 23.044 7.09468C22.0987 6.39941 21.0953 6 20.2954 6C20.1354 6 19.99 6.01479 19.8446 6.04438C19.481 6.11834 19.1611 6.38462 18.9575 6.78403C18.7103 7.2574 18.6521 7.8935 18.8121 8.27812C18.8703 8.39646 18.943 8.54439 19.0302 8.67752C18.2595 9.1509 17.8232 9.28404 17.765 9.29883C19.7719 9.9793 21.4443 11.3994 22.4914 13.2485L22.5059 13.071C22.5495 12.5829 22.695 12.0207 22.8985 11.4438C23.1021 11.503 23.3057 11.5326 23.5093 11.5326C24.0474 11.5326 24.5127 11.3107 24.8036 10.9113C25.0945 10.5119 25.2108 9.97931 25.0799 9.53552Z" fill="#5E12A0"/>
<path d="M22.9858 11.0147C24.3092 11.3845 24.8473 10.349 24.6728 9.65376C24.4837 8.95849 23.8729 8.24843 22.7968 7.44961C21.7206 6.65079 20.6299 6.32534 19.9319 6.47327C19.2339 6.6212 19.0302 7.70109 19.2048 8.11529C19.2775 8.27801 19.4374 8.5147 19.6556 8.78097C19.3793 8.97328 19.1175 9.12121 18.8994 9.25435C20.2373 9.86086 21.4007 10.8076 22.2732 11.991C22.375 11.5916 22.5205 11.2366 22.6513 10.9259C22.7531 10.9407 22.8695 10.9703 22.9858 11.0147Z" fill="url(#paint0_radial_1027_16794)"/>
<path d="M15.4092 25.5117C19.8989 25.5117 23.5385 21.8094 23.5385 17.2424C23.5385 12.6754 19.8989 8.97314 15.4092 8.97314C10.9195 8.97314 7.27991 12.6754 7.27991 17.2424C7.27991 21.8094 10.9195 25.5117 15.4092 25.5117Z" fill="url(#paint1_radial_1027_16794)"/>
<path opacity="0.6" d="M24.0038 8.97321C22.8986 7.78977 21.9679 7.47912 20.8481 7.22764C19.9755 7.02054 20.2082 6.51758 21.2698 6.62113C20.7608 6.44361 20.2809 6.39923 19.9319 6.4732C19.2339 6.62113 19.0302 7.70101 19.2048 8.11522C19.2775 8.27794 19.4375 8.51463 19.6556 8.7809C19.263 9.04717 18.9285 9.23948 18.6522 9.38741C18.783 9.44658 18.943 9.52055 19.1321 9.6241C19.6265 9.89037 20.1646 10.3341 20.1646 10.3341C19.3502 9.6241 19.5247 9.29865 20.6445 8.49983C20.9935 8.24835 21.6334 8.27794 22.2296 8.58859C22.8259 8.89924 23.5239 9.68327 23.5239 9.68327L22.855 10.9851C22.8986 10.9999 22.9422 11.0146 22.9858 11.0294C23.4076 11.1478 23.7421 11.1182 24.0038 11.0146C24.3092 10.8223 25.1091 10.1714 24.0038 8.97321Z" fill="#A98698"/>
<path d="M20.8335 7.93782C21.1244 8.05616 21.5025 8.26326 21.9679 8.57391C22.5205 8.94374 23.0004 9.35794 23.3058 9.68339C22.7968 10.3638 22.4623 11.2958 22.2587 11.9467C22.3605 12.0946 22.4768 12.2426 22.5787 12.3905C22.6805 12.0207 22.855 11.4734 23.0876 10.926C23.1458 10.9408 23.2185 10.9408 23.2913 10.9408C23.4658 10.9408 23.6693 10.9112 23.8293 10.7781C23.9456 10.6893 24.0766 10.5266 24.062 10.2307C24.062 9.94966 23.8438 9.59463 23.3931 9.16563C23.0731 8.85498 22.6368 8.51474 22.2006 8.20409C20.9499 7.36089 20.0773 7.1242 19.6847 7.52361C19.4229 7.78989 19.452 8.11533 19.5392 8.35202C19.0739 8.66267 18.6812 8.88457 18.4195 9.0325C18.594 9.09167 18.754 9.16563 18.9285 9.2396C19.3938 8.98812 20.0628 8.55912 20.8335 7.93782ZM23.5821 10.0532C23.6257 10.1272 23.6403 10.2011 23.6403 10.2455C23.6403 10.3786 23.5966 10.4231 23.5676 10.4526C23.5094 10.497 23.3931 10.5266 23.2913 10.5266C23.3785 10.3491 23.4803 10.2011 23.5821 10.0532ZM19.9901 7.84906C20.0337 7.80468 20.15 7.77509 20.3391 7.80468C20.1937 7.92302 20.0483 8.02657 19.9028 8.13013C19.8883 8.02657 19.9028 7.92302 19.9901 7.84906Z" fill="#5E12A0"/>
<path d="M15.4092 8.48511C10.6538 8.48511 6.79999 12.4052 6.79999 17.2425C6.79999 22.0798 10.6538 26 15.4092 26C20.1646 26 24.0184 22.0798 24.0184 17.2425C24.0184 12.4052 20.1501 8.48511 15.4092 8.48511ZM15.4092 25.5118C10.9155 25.5118 7.27989 21.8135 7.27989 17.2425C7.27989 12.6715 10.9155 8.97327 15.4092 8.97327C19.9028 8.97327 23.5385 12.6715 23.5385 17.2425C23.5385 21.8135 19.8883 25.5118 15.4092 25.5118Z" fill="#5E12A0"/>
<path opacity="0.6" d="M15.4092 25.5119C19.8989 25.5119 23.5385 21.8096 23.5385 17.2427C23.5385 12.6757 19.8989 8.97339 15.4092 8.97339C10.9195 8.97339 7.27991 12.6757 7.27991 17.2427C7.27991 21.8096 10.9195 25.5119 15.4092 25.5119Z" fill="url(#paint2_linear_1027_16794)"/>
<path opacity="0.6" d="M15.351 24.5061C10.9155 23.7813 7.90523 19.5357 8.63236 15.0239C8.9523 13.0268 9.94119 11.3256 11.3373 10.0978C9.30132 11.296 7.78889 13.3818 7.3817 15.9262C6.66911 20.438 9.67943 24.6836 14.1004 25.4085C16.5726 25.8227 18.9576 25.0387 20.7172 23.5002C19.1612 24.4173 17.2706 24.8168 15.351 24.5061Z" fill="#A98698"/>
<path opacity="0.6" d="M16.7035 9.09177C14.653 8.75153 12.6607 9.22491 11.0319 10.2752C11.0028 10.3048 10.9737 10.3344 10.9737 10.3344C11.599 9.94976 12.5152 9.60952 12.5152 9.60952C10.1593 11.0001 9.43219 12.5829 9.43219 12.5829C10.3484 10.7782 13.0387 9.50597 15.1474 9.41722C17.2561 9.32846 18.6376 9.96455 20.3246 11.3403C22.0115 12.7308 23.0295 15.5711 22.9277 17.8196C22.8404 20.0681 21.677 21.8877 21.677 21.8877C22.4769 20.8374 22.9568 20.0681 23.2622 19.2841C23.3203 19.0474 23.3785 18.8107 23.4076 18.5592C24.1347 14.0622 21.1389 9.81662 16.7035 9.09177Z" fill="url(#paint3_linear_1027_16794)"/>
<path d="M23.1312 17.1687C23.1312 21.5031 19.6701 25.0238 15.4091 25.0238C11.1482 25.0238 7.67249 21.5031 7.67249 17.1687H23.1312Z" fill="url(#paint4_linear_1027_16794)"/>
<g opacity="0.6">
<path opacity="0.6" d="M22.5205 17.1687C22.5205 21.3995 19.2339 24.861 15.1038 25.0238C15.2056 25.0238 15.3074 25.0238 15.4092 25.0238C19.6702 25.0238 23.1313 21.5031 23.1313 17.1687H22.5205Z" fill="url(#paint5_linear_1027_16794)"/>
</g>
<g opacity="0.7">
<path opacity="0.7" d="M8.76318 17.1687H7.67249C7.67249 21.5031 11.1336 25.0238 15.3946 25.0238C15.5836 25.0238 15.7581 25.0238 15.9327 25.009C11.9335 24.7131 8.76318 21.3107 8.76318 17.1687Z" fill="url(#paint6_linear_1027_16794)"/>
</g>
<path d="M23.1167 17.2426C23.1167 16.3402 21.5752 15.8225 19.5247 15.6449C18.0414 15.5266 16.5434 15.6745 14.8274 16.207C13.3441 16.6508 12.0062 16.5769 11.0318 16.4586C8.86497 16.207 7.67249 16.1775 7.67249 17.2426C7.67249 18.781 10.7555 20.7041 15.38 20.0384C17.7214 19.6982 18.9284 19.0029 20.31 18.5296C21.8079 18.0266 23.1167 18.0414 23.1167 17.2426Z" fill="url(#paint7_linear_1027_16794)"/>
<path d="M17.9396 13.5149C18.6625 13.5149 19.2485 12.9188 19.2485 12.1836C19.2485 11.4483 18.6625 10.8522 17.9396 10.8522C17.2168 10.8522 16.6308 11.4483 16.6308 12.1836C16.6308 12.9188 17.2168 13.5149 17.9396 13.5149Z" fill="white"/>
<path d="M20.0773 14.5058C20.3826 14.5058 20.63 14.2542 20.63 13.9437C20.63 13.6333 20.3826 13.3816 20.0773 13.3816C19.7721 13.3816 19.5247 13.6333 19.5247 13.9437C19.5247 14.2542 19.7721 14.5058 20.0773 14.5058Z" fill="white"/>
<g opacity="0.6">
<path opacity="0.6" d="M22.0551 11.1183C22.0406 11.1183 22.026 11.1183 22.026 11.1183C21.9387 11.1035 21.8806 11.0148 21.8951 10.9112C22.026 10.2308 22.5786 9.57986 22.6077 9.55028C22.6659 9.47631 22.7822 9.47631 22.8404 9.53548C22.9131 9.59466 22.9131 9.713 22.8549 9.77217C22.8404 9.78696 22.3314 10.3935 22.2151 10.9852C22.2005 11.074 22.1278 11.1183 22.0551 11.1183Z" fill="url(#paint8_linear_1027_16794)"/>
</g>
<path opacity="0.2" d="M14.8721 23.4113C15.0969 23.4113 15.2792 23.2258 15.2792 22.9971C15.2792 22.7683 15.0969 22.5829 14.8721 22.5829C14.6472 22.5829 14.4648 22.7683 14.4648 22.9971C14.4648 23.2258 14.6472 23.4113 14.8721 23.4113Z" fill="white"/>
<g opacity="0.4">
<path opacity="0.6" d="M14.6384 23.2639C14.4784 23.1011 14.4784 22.8349 14.6384 22.6721C14.6675 22.6426 14.6966 22.6278 14.7257 22.5981C14.6675 22.613 14.6239 22.6426 14.5802 22.6869C14.4203 22.8496 14.4203 23.1159 14.5802 23.2786C14.7111 23.4118 14.9147 23.4414 15.0747 23.3526C14.9292 23.4118 14.7547 23.3822 14.6384 23.2639Z" fill="url(#paint9_linear_1027_16794)"/>
</g>
<path opacity="0.3" d="M15.0166 22.8788C15.0647 22.8788 15.1038 22.8391 15.1038 22.79C15.1038 22.741 15.0647 22.7013 15.0166 22.7013C14.9684 22.7013 14.9293 22.741 14.9293 22.79C14.9293 22.8391 14.9684 22.8788 15.0166 22.8788Z" fill="white"/>
<path opacity="0.2" d="M16.9953 23.2042C17.2202 23.2042 17.4025 23.0188 17.4025 22.79C17.4025 22.5613 17.2202 22.3759 16.9953 22.3759C16.7704 22.3759 16.5881 22.5613 16.5881 22.79C16.5881 23.0188 16.7704 23.2042 16.9953 23.2042Z" fill="white"/>
<g opacity="0.4">
<path opacity="0.6" d="M16.7616 23.0565C16.6017 22.8938 16.6017 22.6275 16.7616 22.4648C16.7907 22.4352 16.8198 22.4205 16.8489 22.3909C16.7907 22.4057 16.7471 22.4352 16.7035 22.4796C16.5435 22.6423 16.5435 22.9086 16.7035 23.0713C16.8343 23.2045 17.0379 23.2341 17.1979 23.1453C17.0525 23.2045 16.878 23.1749 16.7616 23.0565Z" fill="url(#paint10_linear_1027_16794)"/>
</g>
<path opacity="0.3" d="M17.1397 22.6717C17.1879 22.6717 17.227 22.6319 17.227 22.5829C17.227 22.5339 17.1879 22.4941 17.1397 22.4941C17.0915 22.4941 17.0525 22.5339 17.0525 22.5829C17.0525 22.6319 17.0915 22.6717 17.1397 22.6717Z" fill="white"/>
<path opacity="0.2" d="M15.9473 24.1658C16.1159 24.1658 16.2527 24.0267 16.2527 23.8551C16.2527 23.6835 16.1159 23.5444 15.9473 23.5444C15.7786 23.5444 15.6419 23.6835 15.6419 23.8551C15.6419 24.0267 15.7786 24.1658 15.9473 24.1658Z" fill="white"/>
<g opacity="0.4">
<path opacity="0.6" d="M15.7728 24.0479C15.6564 23.9295 15.6564 23.7224 15.7728 23.6041C15.7873 23.5893 15.8164 23.5745 15.8309 23.5597C15.7873 23.5745 15.7582 23.6041 15.7292 23.6337C15.6128 23.752 15.6128 23.9591 15.7292 24.0774C15.8309 24.181 15.9764 24.1958 16.1072 24.1218C15.9909 24.1662 15.86 24.1366 15.7728 24.0479Z" fill="url(#paint11_linear_1027_16794)"/>
</g>
<path opacity="0.3" d="M16.0491 23.7516C16.0812 23.7516 16.1072 23.7251 16.1072 23.6923C16.1072 23.6597 16.0812 23.6332 16.0491 23.6332C16.0169 23.6332 15.9909 23.6597 15.9909 23.6923C15.9909 23.7251 16.0169 23.7516 16.0491 23.7516Z" fill="white"/>
<path opacity="0.2" d="M17.8232 23.9437C17.9919 23.9437 18.1286 23.8046 18.1286 23.6331C18.1286 23.4615 17.9919 23.3224 17.8232 23.3224C17.6545 23.3224 17.5178 23.4615 17.5178 23.6331C17.5178 23.8046 17.6545 23.9437 17.8232 23.9437Z" fill="white"/>
<g opacity="0.4">
<path opacity="0.6" d="M17.6487 23.8259C17.5324 23.7076 17.5324 23.5005 17.6487 23.3821C17.6632 23.3674 17.6923 23.3526 17.7069 23.3378C17.6632 23.3526 17.6342 23.3821 17.6051 23.4117C17.4887 23.5301 17.4887 23.7371 17.6051 23.8555C17.7069 23.9591 17.8523 23.9739 17.9832 23.8999C17.8668 23.9443 17.7359 23.9147 17.6487 23.8259Z" fill="url(#paint12_linear_1027_16794)"/>
</g>
<path opacity="0.3" d="M17.925 23.5295C17.9571 23.5295 17.9832 23.503 17.9832 23.4703C17.9832 23.4376 17.9571 23.4111 17.925 23.4111C17.8929 23.4111 17.8668 23.4376 17.8668 23.4703C17.8668 23.503 17.8929 23.5295 17.925 23.5295Z" fill="white"/>
<path opacity="0.2" d="M13.1406 23.2633C13.51 23.2633 13.8095 22.9586 13.8095 22.5828C13.8095 22.207 13.51 21.9023 13.1406 21.9023C12.7711 21.9023 12.4716 22.207 12.4716 22.5828C12.4716 22.9586 12.7711 23.2633 13.1406 23.2633Z" fill="white"/>
<g opacity="0.4">
<path opacity="0.6" d="M12.7628 23.0117C12.5011 22.7455 12.5011 22.3164 12.7628 22.0502C12.8064 22.0058 12.8501 21.9762 12.9082 21.9467C12.821 21.9762 12.7483 22.0354 12.6756 22.0946C12.4138 22.3609 12.4138 22.7898 12.6756 23.0561C12.8937 23.278 13.2282 23.3224 13.4899 23.1597C13.2427 23.2632 12.9519 23.2188 12.7628 23.0117Z" fill="url(#paint13_linear_1027_16794)"/>
</g>
<path opacity="0.3" d="M13.3733 22.3758C13.4536 22.3758 13.5187 22.3096 13.5187 22.2279C13.5187 22.1462 13.4536 22.08 13.3733 22.08C13.2929 22.08 13.2278 22.1462 13.2278 22.2279C13.2278 22.3096 13.2929 22.3758 13.3733 22.3758Z" fill="white"/>
<path opacity="0.2" d="M19.1179 21.5917C19.4874 21.5917 19.7869 21.287 19.7869 20.9112C19.7869 20.5354 19.4874 20.2307 19.1179 20.2307C18.7485 20.2307 18.449 20.5354 18.449 20.9112C18.449 21.287 18.7485 21.5917 19.1179 21.5917Z" fill="white"/>
<g opacity="0.4">
<path opacity="0.6" d="M18.7249 21.3402C18.4631 21.0739 18.4631 20.6449 18.7249 20.3787C18.7685 20.3343 18.8121 20.3047 18.8703 20.2751C18.783 20.3047 18.7103 20.3639 18.6376 20.4231C18.3758 20.6893 18.3758 21.1183 18.6376 21.3846C18.8558 21.6065 19.1902 21.6509 19.452 21.4882C19.2048 21.5917 18.9285 21.5473 18.7249 21.3402Z" fill="url(#paint14_linear_1027_16794)"/>
</g>
<path opacity="0.3" d="M19.3502 20.7043C19.4305 20.7043 19.4956 20.6381 19.4956 20.5564C19.4956 20.4747 19.4305 20.4084 19.3502 20.4084C19.2699 20.4084 19.2048 20.4747 19.2048 20.5564C19.2048 20.6381 19.2699 20.7043 19.3502 20.7043Z" fill="white"/>
</g>
<defs>
<radialGradient id="paint0_radial_1027_16794" cx="0" cy="0" r="1" gradientUnits="userSpaceOnUse" gradientTransform="translate(24.4075 8.72179) scale(6.49969 6.61161)">
<stop stop-color="#FFEAFF" stop-opacity="0.6"/>
<stop offset="0.6807" stop-color="#A087C9"/>
<stop offset="1" stop-color="#10002F"/>
</radialGradient>
<radialGradient id="paint1_radial_1027_16794" cx="0" cy="0" r="1" gradientUnits="userSpaceOnUse" gradientTransform="translate(20.7915 11.5414) scale(15.9024 16.1763)">
<stop stop-color="#FFEAFF" stop-opacity="0.6"/>
<stop offset="0.6807" stop-color="#A087C9"/>
<stop offset="1" stop-color="#10002F"/>
</radialGradient>
<linearGradient id="paint2_linear_1027_16794" x1="14.1052" y1="25.3946" x2="16.7933" y2="9.09148" gradientUnits="userSpaceOnUse">
<stop stop-color="#81FFFF"/>
<stop offset="0.6202" stop-color="white" stop-opacity="0"/>
</linearGradient>
<linearGradient id="paint3_linear_1027_16794" x1="21.1383" y1="11.6268" x2="14.3113" y2="17.7846" gradientUnits="userSpaceOnUse">
<stop offset="0.2888" stop-color="white"/>
<stop offset="0.7796" stop-color="white" stop-opacity="0"/>
</linearGradient>
<linearGradient id="paint4_linear_1027_16794" x1="7.67903" y1="21.0916" x2="23.1275" y2="21.0916" gradientUnits="userSpaceOnUse">
<stop stop-color="#0002E9"/>
<stop offset="0.9952" stop-color="#FF00C7"/>
</linearGradient>
<linearGradient id="paint5_linear_1027_16794" x1="23.8589" y1="17.858" x2="15.315" y2="25.7957" gradientUnits="userSpaceOnUse">
<stop offset="0.2888" stop-color="white"/>
<stop offset="0.7796" stop-color="white" stop-opacity="0"/>
</linearGradient>
<linearGradient id="paint6_linear_1027_16794" x1="7.67903" y1="21.0916" x2="15.9439" y2="21.0916" gradientUnits="userSpaceOnUse">
<stop stop-color="#000292"/>
<stop offset="0.9952" stop-color="#7D00C7"/>
</linearGradient>
<linearGradient id="paint7_linear_1027_16794" x1="7.6894" y1="17.8951" x2="23.1171" y2="17.8951" gradientUnits="userSpaceOnUse">
<stop stop-color="#000292"/>
<stop offset="0.9952" stop-color="#BE00C7"/>
</linearGradient>
<linearGradient id="paint8_linear_1027_16794" x1="22.864" y1="9.47823" x2="21.7275" y2="11.2938" gradientUnits="userSpaceOnUse">
<stop offset="0.2888" stop-color="white"/>
<stop offset="0.7796" stop-color="white" stop-opacity="0"/>
</linearGradient>
<linearGradient id="paint9_linear_1027_16794" x1="14.4599" y1="23.0103" x2="15.0751" y2="23.0103" gradientUnits="userSpaceOnUse">
<stop offset="0.2888" stop-color="white"/>
<stop offset="0.7796" stop-color="white" stop-opacity="0"/>
</linearGradient>
<linearGradient id="paint10_linear_1027_16794" x1="16.5816" y1="22.8002" x2="17.1969" y2="22.8002" gradientUnits="userSpaceOnUse">
<stop offset="0.2888" stop-color="white"/>
<stop offset="0.7796" stop-color="white" stop-opacity="0"/>
</linearGradient>
<linearGradient id="paint11_linear_1027_16794" x1="15.64" y1="23.8591" x2="16.1019" y2="23.8591" gradientUnits="userSpaceOnUse">
<stop offset="0.2888" stop-color="white"/>
<stop offset="0.7796" stop-color="white" stop-opacity="0"/>
</linearGradient>
<linearGradient id="paint12_linear_1027_16794" x1="17.5096" y1="23.6366" x2="17.9715" y2="23.6366" gradientUnits="userSpaceOnUse">
<stop offset="0.2888" stop-color="white"/>
<stop offset="0.7796" stop-color="white" stop-opacity="0"/>
</linearGradient>
<linearGradient id="paint13_linear_1027_16794" x1="12.4726" y1="22.6001" x2="13.4774" y2="22.6001" gradientUnits="userSpaceOnUse">
<stop offset="0.2888" stop-color="white"/>
<stop offset="0.7796" stop-color="white" stop-opacity="0"/>
</linearGradient>
<linearGradient id="paint14_linear_1027_16794" x1="18.4402" y1="20.9281" x2="19.445" y2="20.9281" gradientUnits="userSpaceOnUse">
<stop offset="0.2888" stop-color="white"/>
<stop offset="0.7796" stop-color="white" stop-opacity="0"/>
</linearGradient>
<clipPath id="clip0_1027_16794">
<rect width="32" height="32" fill="white"/>
</clipPath>
</defs>
</svg>
