<svg width="32" height="32" viewBox="0 0 32 32" fill="none" xmlns="http://www.w3.org/2000/svg">
<g clip-path="url(#clip0_554_15825)">
<path d="M16 32C24.8366 32 32 24.8366 32 16C32 7.16344 24.8366 0 16 0C7.16344 0 0 7.16344 0 16C0 24.8366 7.16344 32 16 32Z" fill="#06061A"/>
<path d="M10.7987 12.262C10.6598 12.1034 10.4888 12.0239 10.2854 12.0239H6.12468C6.08772 12.0239 6.05749 12.0122 6.03472 11.9889C6.01157 11.9659 6 11.9399 6 11.912V9.11191C6 9.08403 6.01157 9.05841 6.03472 9.03504C6.05749 9.01168 6.08772 9 6.12468 9H10.5213C11.6307 9 12.5879 9.45293 13.3923 10.358L14.4603 11.6599L12.3799 14.1939L10.7987 12.262ZM18.4825 10.3441C19.287 9.44803 20.2485 9 21.3673 9H25.7501C25.7871 9 25.8147 9.00942 25.8334 9.02788C25.8517 9.04672 25.861 9.07461 25.861 9.11191V11.912C25.861 11.9399 25.8517 11.9659 25.8334 11.9889C25.8147 12.0122 25.7871 12.0239 25.7501 12.0239H21.5894C21.386 12.0239 21.215 12.1034 21.0762 12.262L18.0111 15.986L21.09 19.738C21.2288 19.8876 21.3949 19.9622 21.5894 19.9622H25.7501C25.7871 19.9622 25.8147 19.9738 25.8334 19.9972C25.8517 20.0206 25.861 20.0511 25.861 20.088V22.8881C25.861 22.916 25.8517 22.942 25.8334 22.965C25.8147 22.9883 25.7871 23 25.7501 23H21.3673C20.2485 23 19.2914 22.5474 18.4963 21.642L15.9445 18.534L13.3923 21.642C12.5879 22.5474 11.6263 23 10.5075 23H6.12468C6.08772 23 6.05973 22.9883 6.04144 22.965C6.02277 22.9416 6.01381 22.9114 6.01381 22.8737V20.0737C6.01381 20.0458 6.02277 20.0202 6.04144 19.9968C6.05973 19.9734 6.08772 19.9618 6.12468 19.9618H10.2854C10.4795 19.9618 10.6505 19.8826 10.7987 19.7236L13.8081 16.0558L18.4825 10.3441Z" fill="#00DCFF"/>
<path d="M10.7987 12.262C10.6598 12.1034 10.4888 12.0239 10.2854 12.0239H6.12468C6.08772 12.0239 6.05749 12.0122 6.03472 11.9889C6.01157 11.9659 6 11.9399 6 11.912V9.11191C6 9.08403 6.01157 9.05841 6.03472 9.03504C6.05749 9.01168 6.08772 9 6.12468 9H10.5213C11.6307 9 12.5879 9.45293 13.3923 10.358L14.4603 11.6599L12.3799 14.1939L10.7987 12.262ZM18.4825 10.3441C19.287 9.44803 20.2485 9 21.3673 9H25.7501C25.7871 9 25.8147 9.00942 25.8334 9.02788C25.8517 9.04672 25.861 9.07461 25.861 9.11191V11.912C25.861 11.9399 25.8517 11.9659 25.8334 11.9889C25.8147 12.0122 25.7871 12.0239 25.7501 12.0239H21.5894C21.386 12.0239 21.215 12.1034 21.0762 12.262L18.0111 15.986L21.09 19.738C21.2288 19.8876 21.3949 19.9622 21.5894 19.9622H25.7501C25.7871 19.9622 25.8147 19.9738 25.8334 19.9972C25.8517 20.0206 25.861 20.0511 25.861 20.088V22.8881C25.861 22.916 25.8517 22.942 25.8334 22.965C25.8147 22.9883 25.7871 23 25.7501 23H21.3673C20.2485 23 19.2914 22.5474 18.4963 21.642L15.9445 18.534L13.3923 21.642C12.5879 22.5474 11.6263 23 10.5075 23H6.12468C6.08772 23 6.05973 22.9883 6.04144 22.965C6.02277 22.9416 6.01381 22.9114 6.01381 22.8737V20.0737C6.01381 20.0458 6.02277 20.0202 6.04144 19.9968C6.05973 19.9734 6.08772 19.9618 6.12468 19.9618H10.2854C10.4795 19.9618 10.6505 19.8826 10.7987 19.7236L13.8081 16.0558L18.4825 10.3441Z" fill="#00D1FF"/>
</g>
<defs>
<clipPath id="clip0_554_15825">
<rect width="32" height="32" fill="white"/>
</clipPath>
</defs>
</svg>
