<svg width="32" height="32" viewBox="0 0 32 32" fill="none" xmlns="http://www.w3.org/2000/svg">
<path fill-rule="evenodd" clip-rule="evenodd" d="M16 32C24.8366 32 32 24.8366 32 16C32 7.16344 24.8366 0 16 0C7.16344 0 0 7.16344 0 16C0 24.8366 7.16344 32 16 32Z" fill="white"/>
<path fill-rule="evenodd" clip-rule="evenodd" d="M16 31.5C24.5604 31.5 31.5 24.5604 31.5 16C31.5 7.43959 24.5604 0.5 16 0.5C7.43959 0.5 0.5 7.43959 0.5 16C0.5 24.5604 7.43959 31.5 16 31.5ZM32 16C32 24.8366 24.8366 32 16 32C7.16344 32 0 24.8366 0 16C0 7.16344 7.16344 0 16 0C24.8366 0 32 7.16344 32 16Z" fill="#E6E9EC"/>
<path d="M9.66405 7.26172L26.4697 18.7366L22.3135 24.8806L5.50781 13.3154L9.66405 7.26172Z" fill="url(#paint0_linear_26163_90807)"/>
<path d="M26.4727 18.7371C25.027 20.8152 20.1479 20.002 15.5399 16.7493C10.8416 13.587 8.3117 9.34038 9.667 7.26226C11.1126 5.18414 15.9917 5.99732 20.5997 9.25002C25.2981 12.322 27.828 16.659 26.4727 18.7371Z" fill="url(#paint1_linear_26163_90807)"/>
<path d="M22.3145 24.7903C20.8689 26.8685 15.9898 26.0553 11.3818 22.8026C6.77382 19.5499 4.15358 15.3936 5.59923 13.2251C7.04488 11.147 11.9239 11.9602 16.5319 15.2129C21.14 18.4656 23.6698 22.7122 22.3145 24.7903Z" fill="url(#paint2_linear_26163_90807)"/>
<path d="M26.5031 18.7364L22.3469 24.8804C20.9012 26.9585 16.0222 26.055 11.4142 22.8926C10.5106 22.2602 9.96161 21.6702 9.14844 20.9474C9.78091 20.857 10.3299 20.4531 11.1431 19.5496C12.5888 18.0136 13.3116 17.6522 13.9441 17.7425C14.5765 17.7425 15.2994 18.375 16.4739 19.911C17.6485 21.447 19.2749 21.8988 20.2688 21.0856C20.3591 20.9952 20.4495 20.9952 20.5398 20.9049C21.353 20.2724 21.6241 20.0013 23.1601 17.1101C23.5215 16.3872 24.7864 15.2126 26.5031 15.7548C26.9549 16.9293 26.9549 17.9232 26.5031 18.7364Z" fill="#0E0F23"/>
<path fill-rule="evenodd" clip-rule="evenodd" d="M25.8356 18.3772C24.5706 20.1843 20.1433 19.2807 15.8967 16.2991C11.5598 13.3174 9.02991 9.52261 10.2948 7.71555C11.5598 5.90849 15.9871 6.81202 20.2337 9.79367C24.4803 12.7753 27.0102 16.5701 25.8356 18.3772ZM21.86 15.6666C21.2276 16.5701 19.0591 16.1184 16.8906 14.6727C14.8125 13.2271 13.5476 11.3297 14.18 10.4261C14.8125 9.52261 16.981 9.97437 19.1494 11.42C21.2276 12.8657 22.4925 14.7631 21.86 15.6666Z" fill="white"/>
<path d="M9.30477 9.34067C9.30477 9.25032 9.21442 9.15996 9.12407 9.25032C9.03371 9.34067 8.94336 9.34067 8.94336 9.43102C9.03371 9.70208 9.12407 9.88279 9.12407 10.0635C9.12407 10.1538 9.21442 10.2442 9.30477 10.1538C9.39512 10.1538 9.48548 10.0635 9.39512 9.97314C9.39512 9.79243 9.39512 9.61173 9.30477 9.34067Z" fill="white"/>
<path d="M9.75348 10.786C9.75348 10.6956 9.66313 10.6053 9.57277 10.6956C9.48242 10.786 9.48242 10.786 9.48242 10.8763C10.4763 13.1352 12.5544 15.5747 15.265 17.3818C15.3554 17.4721 15.4457 17.3818 15.5361 17.3818C15.6264 17.2914 15.5361 17.201 15.5361 17.1107C12.7351 15.3036 10.7474 12.9545 9.75348 10.786Z" fill="white"/>
<path d="M20.6885 19.6416C20.5982 19.6416 20.5078 19.6416 20.5078 19.732C20.5078 19.8223 20.5078 19.9127 20.5982 19.9127C20.8692 20.003 21.2306 20.0934 21.5017 20.1837C21.592 20.1837 21.6824 20.1837 21.6824 20.0934C21.6824 20.003 21.6824 19.9127 21.592 19.9127C21.321 19.8223 20.9596 19.732 20.6885 19.6416Z" fill="white"/>
<path d="M22.3135 20.002C22.2232 20.002 22.1328 20.0923 22.1328 20.1827C22.1328 20.273 22.2232 20.3634 22.3135 20.3634C23.0363 20.4537 23.8495 20.5441 24.482 20.4537C24.5723 20.4537 24.6627 20.3634 24.6627 20.273C24.6627 20.1827 24.5723 20.0923 24.482 20.0923C23.7592 20.1827 23.0363 20.0923 22.3135 20.002Z" fill="white"/>
<defs>
<linearGradient id="paint0_linear_26163_90807" x1="12.9567" y1="5.63021" x2="16.2895" y2="17.0745" gradientUnits="userSpaceOnUse">
<stop stop-color="#03B8FF"/>
<stop offset="1" stop-color="#FA52A0"/>
</linearGradient>
<linearGradient id="paint1_linear_26163_90807" x1="15.7042" y1="4.8314" x2="19.0371" y2="16.2758" gradientUnits="userSpaceOnUse">
<stop stop-color="#03B8FF"/>
<stop offset="1" stop-color="#FA52A0"/>
</linearGradient>
<linearGradient id="paint2_linear_26163_90807" x1="10.2217" y1="6.42708" x2="13.5545" y2="17.8715" gradientUnits="userSpaceOnUse">
<stop stop-color="#03B8FF"/>
<stop offset="1" stop-color="#FA52A0"/>
</linearGradient>
</defs>
</svg>
