<svg width="32" height="32" viewBox="0 0 32 32" fill="none" xmlns="http://www.w3.org/2000/svg">
<g clip-path="url(#clip0_548_15634)">
<path fill-rule="evenodd" clip-rule="evenodd" d="M16 32C24.8366 32 32 24.8366 32 16C32 7.16344 24.8366 0 16 0C7.16344 0 0 7.16344 0 16C0 24.8366 7.16344 32 16 32Z" fill="#FF0D75"/>
<path d="M20.8404 8H17.4484L14.7465 10.8502L13.1652 8H9.6441L5 12.8954V12.9837L11.1115 24H14.5604L17.2256 21.1872L18.7867 24H22.366L27 19.1096L20.8404 8ZM13.0069 21.4459L8.52613 13.3682L11.2445 10.5068L15.724 18.5808L13.0069 21.4459ZM20.7302 21.533L16.2482 13.4578L18.9665 10.5964L23.4473 18.6741L20.7302 21.533Z" fill="white"/>
</g>
<defs>
<clipPath id="clip0_548_15634">
<rect width="32" height="32" fill="white"/>
</clipPath>
</defs>
</svg>
