<svg xmlns="http://www.w3.org/2000/svg" xmlns:xlink="http://www.w3.org/1999/xlink" version="1.1" x="0" y="0" enable-background="new 0 0 800 800" xml:space="preserve" viewBox="0 0 800 800"><switch><g><linearGradient id="a" gradientUnits="userSpaceOnUse" x1="258.5" y1="399.8" x2="542.4" y2="399.8"><stop offset="0" stop-color="#070808"/><stop offset=".2" stop-color="#231f20"/><stop offset=".3" stop-color="#0d0c0c"/><stop offset=".4"/><stop offset=".6"/><stop offset=".6" stop-color="#070708"/><stop offset=".8" stop-color="#111213"/><stop offset="1" stop-color="#141517"/></linearGradient><path fill="url(#a)" d="M296.6 673.5c-21 0-38-16.4-38-36.6V162.6c0-20.2 17-36.6 38-36.6h207.8c21 0 38 16.4 38 36.6v474.3c0 20.2-17 36.6-38 36.6H296.6z"/><g opacity=".6"><defs><path id="b" d="M256 161.7a38.2 38.2 0 0 1 38.8-37.5h211a37.7 37.7 0 0 1 38.2 37.6v476.5a37.7 37.7 0 0 1-38.1 37.5h-211a38.3 38.3 0 0 1-38.9-37.6V161.7z"/></defs><use xlink:href="#b" overflow="visible" fill="#D0D2D3"/><clipPath><use xlink:href="#b" overflow="visible"/></clipPath></g><g opacity=".3"><defs><path id="c" d="M272.3 215.3H528.6V583.4H272.3z"/></defs><clipPath id="d"><use xlink:href="#c" overflow="visible"/></clipPath><path clip-path="url(#d)" fill="#333433" d="M275.8 218.6H525.2V580H275.8z"/><path clip-path="url(#d)" fill="#333433" d="M528.7 218.6c0-1.8-1.6-3.3-3.5-3.3H275.8a3.4 3.4 0 0 0-3.5 3.3v361.5c0 1.8 1.6 3.3 3.5 3.3h249.4c2 0 3.5-1.5 3.5-3.3V218.6z"/></g><path fill="#D0D2D3" stroke="#231F20" stroke-width=".8" stroke-miterlimit="10" d="M275.8 218.7H525.2V580.1H275.8z"/><linearGradient id="e" gradientUnits="userSpaceOnUse" x1="376.4" y1="171.8" x2="425.5" y2="171.8"><stop offset="0" stop-color="#3d3e41"/><stop offset="1" stop-color="#3d3e41"/></linearGradient><path fill="url(#e)" d="M425.5 172c0 2.4-2 4.2-4.3 4.2h-40.5a4.2 4.2 0 0 1-4.3-4.1v-.6c0-2.3 2-4.1 4.3-4.1h40.5c2.4 0 4.3 1.8 4.3 4v.7z"/><path fill="#070708" d="M422.2 166h-42.7a1.7 1.7 0 1 0 0 3.3h42.7c1.4 0 2.6 1.1 2.6 2.5 0 1.3-1.2 2.5-2.6 2.5 1 0 1.7.7 1.7 1.6 0 .9-.7 1.6-1.7 1.6 3.3 0 6-2.5 6-5.7s-2.7-5.8-6-5.8"/><defs><path id="f" d="M424 175.9c0-1-.8-1.6-1.8-1.6h-42.7a2.5 2.5 0 0 1-2.5-2.5c0-1.4 1.1-2.5 2.5-2.5-1 0-1.7-.7-1.7-1.6 0-1 .8-1.7 1.7-1.7-3.3 0-6 2.6-6 5.8 0 3.2 2.7 5.7 6 5.7h42.7c1 0 1.7-.7 1.7-1.6"/></defs><linearGradient id="g" gradientUnits="userSpaceOnUse" x1="373.5" y1="171.8" x2="423.9" y2="171.8"><stop offset="0" stop-color="#fff"/><stop offset="0" stop-color="#d8d9d9"/><stop offset="0" stop-color="#b4b5b6"/><stop offset="0" stop-color="#949496"/><stop offset=".1" stop-color="#78797b"/><stop offset=".1" stop-color="#626366"/><stop offset=".1" stop-color="#525255"/><stop offset=".1" stop-color="#464749"/><stop offset=".2" stop-color="#3f4043"/><stop offset=".3" stop-color="#3d3e41"/><stop offset="1" stop-color="#3d3e41"/></linearGradient><use xlink:href="#f" overflow="visible" fill="url(#g)"/><clipPath><use xlink:href="#f" overflow="visible"/></clipPath><radialGradient id="h" cx="364" cy="635.2" r="60" gradientTransform="matrix(1 0 0 .9623 0 15.4)" gradientUnits="userSpaceOnUse"><stop offset="0" stop-color="#020202"/><stop offset=".4" stop-color="#020202"/><stop offset=".5" stop-color="#070707"/><stop offset=".7" stop-color="#161615"/><stop offset=".8" stop-color="#2e2e2c"/><stop offset="1" stop-color="#4f504c"/><stop offset="1" stop-color="#5b5c57"/></radialGradient><ellipse fill="url(#h)" cx="400.3" cy="626.9" rx="25.7" ry="24.7"/><g opacity=".7"><path fill="#FFF" d="M390.9 631.7v-9.6c0-2.4 2-4.2 4.3-4.2h10.1c2.4 0 4.4 1.8 4.4 4.2v9.6c0 2.4-2 4.3-4.4 4.3h-10a4.3 4.3 0 0 1-4.4-4.3"/><path fill="#231F20" d="M408 622c0-1.3-1.3-2.5-2.7-2.5h-10a2.6 2.6 0 0 0-2.7 2.6v9.6c0 1.4 1.2 2.6 2.6 2.6h10.1c1.4 0 2.6-1.2 2.6-2.6v-9.6z"/></g><radialGradient id="i" cx="365.1" cy="162.6" r="3.3" gradientTransform="matrix(1 0 0 .9623 0 15.4)" gradientUnits="userSpaceOnUse"><stop offset="0" stop-color="#808184"/><stop offset="0" stop-color="#78797c"/><stop offset="0" stop-color="#626366"/><stop offset=".1" stop-color="#525356"/><stop offset=".1" stop-color="#46474a"/><stop offset=".2" stop-color="#3f4043"/><stop offset=".3" stop-color="#3d3e41"/><stop offset=".4" stop-color="#454547"/><stop offset="1" stop-color="#3d3e41"/></radialGradient><ellipse opacity=".5" fill="url(#i)" cx="365.1" cy="171.9" rx="3.3" ry="3.2"/><radialGradient id="j" cx="365.1" cy="162.6" r="2" gradientTransform="matrix(1 0 0 .9623 0 15.4)" gradientUnits="userSpaceOnUse"><stop offset="0" stop-color="#808184"/><stop offset="0" stop-color="#78797c"/><stop offset="0" stop-color="#626366"/><stop offset=".1" stop-color="#525356"/><stop offset=".1" stop-color="#46474a"/><stop offset=".2" stop-color="#3f4043"/><stop offset=".3" stop-color="#3d3e41"/><stop offset=".4" stop-color="#454547"/><stop offset="1" stop-color="#3d3e41"/></radialGradient><ellipse opacity=".3" fill="url(#j)" cx="365.1" cy="171.9" rx="2" ry="1.9"/><path opacity=".5" fill="#AAB1B5" d="M275 219H525V238H275z"/><path fill="#FFF" d="M291.6 223.9H293.9V231.4H291.6z"/><path fill="#FFF" d="M288.4 225.4H290.7V231.4H288.4z"/><path fill="#FFF" d="M285.3 226.9H287.6V231.4H285.3z"/><path fill="#FFF" d="M282.2 228.4H284.5V231.4H282.2z"/><path fill="#FFF" d="M279.1 229.9H281.4V231.4H279.1z"/><path fill="#636466" d="M520.4 224.6 520.4 224.6 507.1 224.6 507.1 230.6 520.4 230.6z"/><path fill="#FFF" d="m298.7 229.3.1.7c.2.3.5.4.9.4.2 0 .5 0 .7-.2l.2-.8c0-.4-.1-.7-.5-.8l-1-.1v-1h1c.2-.2.4-.4.4-.8 0-.2 0-.4-.2-.6a.8.8 0 0 0-.7-.2c-.3 0-.5.1-.6.3-.2.2-.2.4-.2.7h-1.3l.2-.9.5-.7.6-.3.9-.1c.6 0 1.1.1 1.5.5s.6.7.6 1.2c0 .4-.1.7-.4 1l-.4.3.5.3c.3.3.5.7.5 1.2s-.2 1-.6 1.4c-.4.4-1 .6-1.7.6-1 0-1.6-.3-2-.8-.1-.4-.3-.8-.3-1.3h1.3zM307.6 226.8c-.1-.4-.4-.7-.8-.9a2 2 0 0 0-.7-.1c-.6 0-1 .2-1.4.6-.3.3-.5 1-.5 1.7 0 .8.2 1.4.6 1.7.3.3.8.5 1.2.5.5 0 1-.1 1.2-.4.3-.2.5-.6.6-1h-1.6v-1h2.8v3.4h-1v-.8l-.8.6c-.4.2-.8.3-1.4.3-.9 0-1.6-.2-2.1-.8-.6-.6-1-1.5-1-2.5s.4-1.9 1-2.5c.6-.6 1.4-1 2.3-1 .9 0 1.6.3 2.1.7.5.4.8 1 .9 1.5h-1.4z"/><path fill="#00370B" d="M510.3 225.4 510.3 225.4 507.9 225.4 507.9 229.9 519.7 229.9 519.7 225.4z"/><path fill="#636466" d="M520.4 226.4H521.6V228.7H520.4z"/><text transform="matrix(1.0392 0 0 1 369.9 231.4)" fill="#58595B" font-family="'MyriadPro-Regular'" font-size="8.9">01: 00 PM   MON</text><linearGradient id="k" gradientUnits="userSpaceOnUse" x1="315.1" y1="425.8" x2="479.6" y2="425.8"><stop offset="0" stop-color="#a6712f"/><stop offset=".1" stop-color="#eaaf26"/><stop offset=".3" stop-color="#ffdf74"/><stop offset=".5" stop-color="#c09e36"/><stop offset=".8" stop-color="#ede7bc"/><stop offset="1" stop-color="#a68032"/></linearGradient><path fill="url(#k)" d="M479.6 431.3a88.2 88.2 0 0 1-27.5 33.5 85.3 85.3 0 0 1-119.6-16.2 83.4 83.4 0 0 1-9.2-82.2 83.6 83.6 0 0 0 7.8 85.4A85.3 85.3 0 0 0 450.6 468a88.2 88.2 0 0 0 29-36.7z"/><linearGradient id="l" gradientUnits="userSpaceOnUse" x1="640.8" y1="268.4" x2="740.6" y2="414.9" gradientTransform="rotate(53.6 492.1 83.7)"><stop offset="0" stop-color="#e2c16e"/><stop offset=".2" stop-color="#f8f2a3"/><stop offset=".2" stop-color="#faf4e5"/><stop offset=".4" stop-color="#f3ea89"/><stop offset=".5" stop-color="#f6db73"/><stop offset=".7" stop-color="#ce8f2c"/></linearGradient><path fill="url(#l)" d="M451.7 465.8A85.3 85.3 0 0 1 332 449.7a85.3 85.3 0 0 1 19.9-119 85.3 85.3 0 0 1 119.5 16.1 85.3 85.3 0 0 1-19.8 119z"/><linearGradient id="m" gradientUnits="userSpaceOnUse" x1="641.2" y1="286.6" x2="752" y2="410.9" gradientTransform="rotate(53.6 492.1 83.7)"><stop offset="0" stop-color="#a77032"/><stop offset=".1" stop-color="#edb12a"/><stop offset=".3" stop-color="#ffe074"/><stop offset=".5" stop-color="#c2a036"/><stop offset=".8" stop-color="#efe9c0"/><stop offset="1" stop-color="#a88035"/></linearGradient><path fill="url(#m)" d="M444.9 455A73.3 73.3 0 0 1 342 441.2a73.3 73.3 0 0 1 17-102.3c33.2-24.4 79.2-18.2 102.8 13.9 23.7 32 16 77.8-17 102.2z"/><linearGradient id="n" gradientUnits="userSpaceOnUse" x1="643.9" y1="289.5" x2="748.7" y2="407.3" gradientTransform="rotate(53.6 492.1 83.7)"><stop offset="0" stop-color="#fff2b0"/><stop offset=".7" stop-color="#ffc200"/><stop offset="1" stop-color="#ffe47d"/></linearGradient><path fill="url(#n)" d="M442.6 452a69.5 69.5 0 0 1-97.3-13.2 69.4 69.4 0 0 1 16.2-96.8 69.5 69.5 0 0 1 97.3 13.1 69.5 69.5 0 0 1-16.2 96.9z"/><linearGradient id="o" gradientUnits="userSpaceOnUse" x1="367" y1="396" x2="435.5" y2="396"><stop offset="0" stop-color="#bc8528"/><stop offset=".1" stop-color="#c58a2a"/><stop offset=".2" stop-color="#cc8e2c"/><stop offset=".7" stop-color="#ce8f2c"/></linearGradient><path fill="url(#o)" d="M431.6 402.3c-2.7-3.4-6.5-5.9-11.4-7.4a17.1 17.1 0 0 0 10.9-16.4 18 18 0 0 0-4.6-12.3 21.2 21.2 0 0 0-11.4-6.6l-4.1-.5V346h-8v12.5c-2-.1-3 .5-5.5.5H394v-13h-8v13h-19v10h11v57h-11v10h19v10h8v-10h4.1c2.3 0 2.9.3 4.9.2v9.8h8v-10.3a34.7 34.7 0 0 0 13.4-3.7c3.3-1.7 6-4.2 8-7.3 2-3.2 3-6.7 3-10.5a19 19 0 0 0-3.8-11.9zm-31-33.3c1.4 0 2.7-.5 4-.4l3.8.4c1.5.4 2.7.7 3.8 1.3a9.3 9.3 0 0 1 5.5 9c0 3.8-1.2 6.6-3.8 8.6l-1.7 1c-1 .5-2.3 1-3.8 1.2-1.1.3-2.4.6-3.8.7l-4 .2H391v-22h9.6zm18.6 52.6c-1.8 2-4.1 3.4-7 4l-.5.1-3.3.5c-1.1 0-2.4-.2-3.8-.1-2.1.1-4.6-.1-7.3-.1H391v-26H399.9c1.7 0 3.2.3 4.7.3 1.4 0 2.7.3 3.8.4l3.8.7c3 .8 5.3 2.2 7.2 4.2 1.8 2.1 2.7 4.7 2.7 7.7 0 3.4-1 6.2-2.9 8.3z"/><linearGradient id="p" gradientUnits="userSpaceOnUse" x1="368" y1="395.5" x2="436.2" y2="395.5"><stop offset=".1" stop-color="#edb12a"/><stop offset=".5" stop-color="#f4cc4c"/><stop offset="1" stop-color="#a88035"/></linearGradient><path fill="url(#p)" d="M432.3 401.6c-2.6-3.5-6.4-6-11.3-7.4a17.1 17.1 0 0 0 10.9-16.5 18 18 0 0 0-4.7-12.3 22.2 22.2 0 0 0-11.7-6.5l-4.5-.6V345h-7v12.7c-2 0-3.2.3-5.8.3H394v-13h-8v13h-18v10h11v58h-11v9h18v11h8v-11h4.9c2.3 0 3.1.6 5.1.5V446h7v-11l2.8-.3a37 37 0 0 0 11.2-3.5 21 21 0 0 0 8.1-7.3c2-3.1 3-6.6 3-10.5 0-4.4-1.1-8.4-3.8-11.8zm-31-33.6c1.5 0 2.8-.4 4-.3l3.9.5c1.4.4 2.7.7 3.8 1.3a9.3 9.3 0 0 1 5.5 9c0 3.8-1.3 6.7-3.8 8.6l-1.7 1c-1 .6-2.4 1-3.8 1.3a31 31 0 0 1-3.9.5l-4 .1H392v-22h9.3zm18.7 52.9c-1.9 2-4.2 3.3-7 4h-.5c-1 .3-2 .4-3.3.5-1.2.1-2.5.3-3.9.3-2 .1-4.5.3-7.3.3h-6v-26h13.3a32.7 32.7 0 0 1 7.6.8c3 .7 5.4 2 7.2 4.1 1.8 2 2.8 4.6 2.8 7.7 0 3.4-1 6.1-3 8.3z"/><radialGradient id="q" cx="481.8" cy="374.5" r="16.8" gradientUnits="userSpaceOnUse"><stop offset="0" stop-color="#fff"/><stop offset="1" stop-color="#fff2b9"/></radialGradient><path opacity=".8" fill="url(#q)" d="M483.2 356.9 481.9 373.8 465.8 374.4 481.8 375.6 482.7 392 483.7 375.6 497.8 374.9 483.8 373.8z"/><defs><filter id="r" filterUnits="userSpaceOnUse" x="392.2" y="129.7" width="146.4" height="413.4"><feColorMatrix values="-1 0 0 0 1 0 -1 0 0 1 0 0 -1 0 1 0 0 0 1 0" color-interpolation-filters="sRGB" result="source"/></filter></defs><mask maskUnits="userSpaceOnUse" x="392.2" y="129.7" width="146.4" height="413.4" id="u"><g filter="url(#r)"><defs><path id="s" d="M538.6 162.6c0-18.1-15.3-33-34.2-33H394.9l-2.7.2 146.4 413.3V162.6z"/></defs><linearGradient id="t" gradientUnits="userSpaceOnUse" x1="465.4" y1="543.1" x2="465.4" y2="129.7"><stop offset="0" stop-color="#fff"/><stop offset=".3" stop-color="#b0aeaf"/><stop offset=".8" stop-color="#4b4849"/><stop offset="1" stop-color="#231f20"/></linearGradient><use xlink:href="#s" overflow="visible" fill="url(#t)"/><clipPath><use xlink:href="#s" overflow="visible"/></clipPath></g></mask><g opacity=".5" mask="url(#u)"><linearGradient id="v" gradientUnits="userSpaceOnUse" x1="392.2" y1="336.4" x2="538.6" y2="336.4"><stop offset="0" stop-color="#fff"/><stop offset="1" stop-color="#e0e1e6"/></linearGradient><path fill="url(#v)" d="M538.6 162.6c0-18.1-15.3-33-34.2-33H394.9l-2.7.2 146.4 413.3V162.6z"/></g></g></switch></svg>