<svg width="32" height="32" viewBox="0 0 32 32" fill="none" xmlns="http://www.w3.org/2000/svg">
<g clip-path="url(#clip0_1557_17015)">
<g clip-path="url(#clip1_1557_17015)">
<path d="M16 32C24.8366 32 32 24.8366 32 16C32 7.16344 24.8366 0 16 0C7.16344 0 0 7.16344 0 16C0 24.8366 7.16344 32 16 32Z" fill="url(#paint0_linear_1557_17015)"/>
<path fill-rule="evenodd" clip-rule="evenodd" d="M15.9527 26.625C12.8388 26.6226 10.3305 25.8754 8.57793 24.5333C6.80433 23.1751 5.86343 21.2476 5.86343 19.0667C5.86343 16.9652 6.80227 15.4499 7.86453 14.4256C8.69703 13.6229 9.6157 13.1088 10.2554 12.8131C10.1107 12.3692 9.93023 11.788 9.76877 11.1877C9.55273 10.3845 9.34077 9.44202 9.34077 8.75142C9.34077 7.93399 9.519 7.11305 9.99953 6.47515C10.5072 5.80122 11.2715 5.44019 12.191 5.44019C12.9096 5.44019 13.5198 5.70672 13.9974 6.16659C14.454 6.60612 14.7578 7.18989 14.9676 7.79839C15.3363 8.86762 15.4799 10.211 15.5201 11.5516H16.4009C16.4411 10.211 16.5847 8.86762 16.9534 7.79839C17.1632 7.18989 17.467 6.60612 17.9236 6.16659C18.4012 5.70672 19.0113 5.44019 19.73 5.44019C20.6495 5.44019 21.4138 5.80122 21.9215 6.47515C22.402 7.11305 22.5802 7.93399 22.5802 8.75142C22.5802 9.44202 22.3683 10.3845 22.1522 11.1877C21.9907 11.788 21.8103 12.3692 21.6656 12.8131C22.3053 13.1088 23.224 13.6229 24.0564 14.4256C25.1187 15.4499 26.0575 16.9652 26.0575 19.0667C26.0575 21.2476 25.1167 23.1751 23.3431 24.5333C21.5905 25.8754 19.0822 26.6226 15.9683 26.625H15.9527Z" fill="#633001"/>
<path d="M12.191 6.21765C10.8442 6.21765 10.2243 7.23262 10.2243 8.63632C10.2243 9.75202 10.9446 11.9865 11.2402 12.8564C11.3066 13.052 11.2022 13.2664 11.0117 13.3423C9.93234 13.7722 6.74701 15.3464 6.74701 18.9516C6.74701 22.7493 9.98401 25.6127 15.9533 25.6173C15.9557 25.6173 15.9581 25.6173 15.9605 25.6173C15.9628 25.6173 15.9652 25.6173 15.9676 25.6173C21.9369 25.6127 25.1739 22.7493 25.1739 18.9516C25.1739 15.3464 21.9886 13.7722 20.9092 13.3423C20.7187 13.2664 20.6143 13.052 20.6808 12.8564C20.9763 11.9865 21.6966 9.75202 21.6966 8.63632C21.6966 7.23262 21.0767 6.21765 19.7299 6.21765C17.7913 6.21765 17.3081 8.99175 17.2736 11.9691C17.2713 12.1678 17.1123 12.3291 16.9155 12.3291H15.0054C14.8086 12.3291 14.6496 12.1678 14.6473 11.9691C14.6128 8.99175 14.1296 6.21765 12.191 6.21765Z" fill="#D1884F"/>
<path d="M15.9676 24.4007C11.5816 24.4007 6.75458 22.0289 6.74701 18.9587C6.74701 18.9635 6.74701 18.9683 6.74701 18.9731C6.74701 22.7739 9.98918 25.6388 15.9676 25.6388C21.946 25.6388 25.1882 22.7739 25.1882 18.9731C25.1882 18.9683 25.1882 18.9635 25.1882 18.9587C25.1806 22.0289 20.3536 24.4007 15.9676 24.4007Z" fill="#FEDC90"/>
<path d="M13.5306 18.0158C13.5306 19.0523 13.0457 19.5922 12.4475 19.5922C11.8493 19.5922 11.3644 19.0523 11.3644 18.0158C11.3644 16.9792 11.8493 16.4393 12.4475 16.4393C13.0457 16.4393 13.5306 16.9792 13.5306 18.0158Z" fill="#633001"/>
<path d="M20.5707 18.0158C20.5707 19.0523 20.0858 19.5922 19.4876 19.5922C18.8895 19.5922 18.4045 19.0523 18.4045 18.0158C18.4045 16.9792 18.8895 16.4393 19.4876 16.4393C20.0858 16.4393 20.5707 16.9792 20.5707 18.0158Z" fill="#633001"/>
</g>
</g>
<defs>
<linearGradient id="paint0_linear_1557_17015" x1="16" y1="0" x2="16" y2="32" gradientUnits="userSpaceOnUse">
<stop stop-color="#53DEE9"/>
<stop offset="1" stop-color="#1FC7D4"/>
</linearGradient>
<clipPath id="clip0_1557_17015">
<rect width="32" height="32" fill="white"/>
</clipPath>
<clipPath id="clip1_1557_17015">
<rect width="32" height="32" fill="white"/>
</clipPath>
</defs>
</svg>
