<svg width="32" height="32" viewBox="0 0 32 32" fill="none" xmlns="http://www.w3.org/2000/svg">
<circle cx="16" cy="16" r="16" fill="white"/>
<path d="M18.9867 16.7466C18.9867 16.5333 18.9867 16.4266 18.7734 16.3199C18.0267 15.7866 17.1734 15.2533 16.4267 14.7199C16.3478 14.6672 16.255 14.639 16.16 14.639C16.0651 14.639 15.9723 14.6672 15.8934 14.7199L13.5467 16.4266C13.4487 16.4766 13.3668 16.5531 13.3102 16.6474C13.2536 16.7417 13.2247 16.85 13.2267 16.9599C13.2217 17.1899 13.1473 17.413 13.0134 17.5999C12.9606 17.6789 12.9325 17.7717 12.9325 17.8666C12.9325 17.9615 12.9606 18.0543 13.0134 18.1333C13.8667 19.8399 14.6134 21.5466 15.4667 23.2533C15.7867 23.7866 16 24.4266 16.32 25.0666C16.4267 24.9599 16.4267 24.8533 16.5334 24.7466C17.4934 22.6133 18.3467 20.4799 19.3067 18.3466C19.4134 18.1333 19.4134 18.0266 19.2 17.9199C19.0801 17.7522 18.9988 17.56 18.9619 17.3572C18.925 17.1543 18.9335 16.9458 18.9867 16.7466Z" fill="#CD0124"/>
<path d="M15.36 13.9733C13.2267 12.48 11.0934 10.9866 9.06669 9.59998L8.96002 9.70664C9.06669 9.91998 9.06669 10.0266 9.17336 10.24L11.4134 15.04C11.6267 15.4666 11.7334 15.8933 12.3734 16C12.5577 16.0166 12.7429 15.9795 12.9067 15.8933C13.5467 15.36 14.2934 14.9333 14.9334 14.4L15.36 13.9733Z" fill="#CD0124"/>
<path d="M16 0C12.8355 0 9.74207 0.938384 7.11088 2.69649C4.4797 4.45459 2.42894 6.95345 1.21793 9.87706C0.00693258 12.8007 -0.309921 16.0177 0.307443 19.1214C0.924806 22.2251 2.44866 25.0761 4.6863 27.3137C6.92394 29.5513 9.77487 31.0752 12.8786 31.6926C15.9823 32.3099 19.1993 31.9931 22.1229 30.7821C25.0466 29.5711 27.5454 27.5203 29.3035 24.8891C31.0616 22.2579 32 19.1645 32 16C32 11.7565 30.3143 7.68687 27.3137 4.68629C24.3131 1.68571 20.2435 0 16 0V0ZM24.64 9.28C24.4267 9.28 24.32 9.38667 24.2133 9.6C23.36 11.7333 22.4 13.8667 21.5467 16V16.4267C21.6319 16.607 21.6772 16.8036 21.6795 17.003C21.6818 17.2024 21.6411 17.4 21.5601 17.5823C21.4791 17.7645 21.3597 17.9271 21.2101 18.0591C21.0606 18.191 20.8843 18.2891 20.6933 18.3467C20.5867 18.3467 20.48 18.4533 20.3733 18.6667C19.4133 20.8 18.4533 23.04 17.6 25.1733C17.5473 25.2523 17.5191 25.3451 17.5191 25.44C17.5191 25.5349 17.5473 25.6277 17.6 25.7067C17.7993 25.9802 17.8881 26.319 17.8485 26.6551C17.809 26.9913 17.644 27.3001 17.3867 27.52C17.1631 27.7409 16.867 27.8734 16.5533 27.893C16.2396 27.9126 15.9294 27.818 15.68 27.6267C15.5468 27.5357 15.4329 27.4194 15.3447 27.2844C15.2565 27.1493 15.1958 26.9982 15.1661 26.8397C15.1363 26.6812 15.1382 26.5183 15.1715 26.3605C15.2047 26.2027 15.2688 26.053 15.36 25.92C15.4123 25.8214 15.4397 25.7116 15.4397 25.6C15.4397 25.4884 15.4123 25.3786 15.36 25.28C14.2933 23.1467 13.3333 21.0133 12.2667 18.88C12.2181 18.7716 12.1444 18.6763 12.0517 18.6021C11.9589 18.5279 11.8498 18.4769 11.7333 18.4533C11.516 18.4172 11.3106 18.329 11.1348 18.1962C10.9589 18.0635 10.8178 17.8901 10.7235 17.691C10.6292 17.4919 10.5844 17.2729 10.5931 17.0527C10.6018 16.8325 10.6636 16.6177 10.7733 16.4267C10.8261 16.3477 10.8542 16.2549 10.8542 16.16C10.8542 16.0651 10.8261 15.9723 10.7733 15.8933C9.81334 13.76 8.85334 11.7333 7.78667 9.6C7.78667 9.49333 7.68001 9.38667 7.36001 9.38667C7.04631 9.34256 6.7577 9.19074 6.54364 8.95722C6.32958 8.7237 6.20339 8.42301 6.18667 8.10667C6.20639 7.81034 6.30608 7.5249 6.47513 7.28072C6.64417 7.03655 6.87625 6.84277 7.14667 6.72C7.43375 6.60879 7.75064 6.60121 8.0427 6.69857C8.33477 6.79593 8.58373 6.99212 8.74667 7.25333C8.85334 7.46667 8.96001 7.46667 9.28001 7.46667H22.8267C23.04 7.46667 23.2533 7.46667 23.36 7.14667C23.5055 6.89541 23.7355 6.70392 24.0089 6.60626C24.2824 6.50861 24.5816 6.51111 24.8533 6.61333C25.1183 6.71365 25.3492 6.88727 25.5192 7.11391C25.6892 7.34056 25.7912 7.61089 25.8133 7.89333C25.8173 8.22696 25.7009 8.55083 25.4853 8.80553C25.2698 9.06024 24.9697 9.22869 24.64 9.28Z" fill="#CD0124"/>
<path d="M16 13.2267C16.0789 13.2794 16.1717 13.3075 16.2667 13.3075C16.3616 13.3075 16.4544 13.2794 16.5333 13.2267C18.56 11.7333 20.5867 10.3467 22.5067 8.85333C22.6133 8.74666 22.72 8.74666 22.72 8.63999V8.53333H9.28C9.40205 8.57811 9.51172 8.65122 9.6 8.74666L16 13.2267Z" fill="#CD0124"/>
<path d="M17.0667 13.9732C17.92 14.6132 18.7733 15.1466 19.6267 15.6799C19.84 15.7866 20.16 15.6799 20.48 15.6799C20.5867 15.6799 20.6933 15.4666 20.6933 15.3599C21.44 13.6532 22.1867 11.8399 22.9333 10.1332C22.9333 10.0266 23.04 9.9199 23.04 9.81323H22.9333C21.12 11.0932 19.0933 12.4799 17.0667 13.9732Z" fill="#CD0124"/>
</svg>
