<svg width="32" height="32" viewBox="0 0 32 32" fill="none" xmlns="http://www.w3.org/2000/svg">
<g clip-path="url(#clip0_769_16011)">
<path fill-rule="evenodd" clip-rule="evenodd" d="M16 32C24.8366 32 32 24.8366 32 16C32 7.16344 24.8366 0 16 0C7.16344 0 0 7.16344 0 16C0 24.8366 7.16344 32 16 32Z" fill="#1A1A27"/>
<path d="M19.4752 8.27661L9.01013 23.0094H12.2231L22.7424 8.27661H19.4752Z" fill="white"/>
<path d="M12.5579 8.27661L15.637 12.6179L14.0305 14.9859L9.27795 8.27661H12.5579Z" fill="url(#paint0_linear_769_16011)"/>
<path d="M19.787 23.0106L16.3732 18.209L17.9797 15.9067L23 23.0106H19.787Z" fill="url(#paint1_linear_769_16011)"/>
</g>
<defs>
<linearGradient id="paint0_linear_769_16011" x1="11.8216" y1="9.19749" x2="16.1383" y2="14.5007" gradientUnits="userSpaceOnUse">
<stop stop-color="white"/>
<stop offset="1" stop-color="white" stop-opacity="0.55"/>
</linearGradient>
<linearGradient id="paint1_linear_769_16011" x1="20.5234" y1="21.8925" x2="15.2293" y2="14.6296" gradientUnits="userSpaceOnUse">
<stop stop-color="#6966FF"/>
<stop offset="1" stop-color="#6966FF" stop-opacity="0.36"/>
</linearGradient>
<clipPath id="clip0_769_16011">
<rect width="32" height="32" fill="white"/>
</clipPath>
</defs>
</svg>
