<svg width="32" height="32" viewBox="0 0 32 32" fill="none" xmlns="http://www.w3.org/2000/svg">
<g clip-path="url(#clip0_1015_16787)">
<path d="M16.0113 32.0226C24.8541 32.0226 32.0226 24.8541 32.0226 16.0113C32.0226 7.1685 24.8541 0 16.0113 0C7.1685 0 0 7.1685 0 16.0113C0 24.8541 7.1685 32.0226 16.0113 32.0226Z" fill="#7866D5"/>
<path d="M22.4926 8.22022C23.0346 8.28796 23.5992 8.33313 24.1412 8.42346C25.2026 8.62671 25.5639 9.1687 25.3832 10.2527C25.3381 10.6592 25.0219 10.9753 24.6154 11.0431C24.367 11.0882 24.096 11.1108 23.8476 11.0882C20.3247 11.0882 16.8243 11.1108 13.3014 11.1108C12.782 11.1108 12.24 11.156 11.7206 11.2463C9.98167 11.5173 9.30418 12.24 9.16869 14.0014C9.10094 14.8144 9.10094 14.8144 9.93651 14.8144H23.9379C24.0734 14.8144 24.2089 14.8144 24.3444 14.8144C24.5702 14.8144 24.7735 14.8822 24.9767 14.9951C25.6091 15.4016 25.451 16.0565 25.4284 16.6436C25.4058 17.1179 25.1122 17.3889 24.6154 17.4792C24.4122 17.5244 24.2089 17.5244 23.9831 17.5244C19.1955 17.5244 14.4079 17.5244 9.62035 17.5244C9.10094 17.5244 9.10094 17.5244 9.1461 18.0438C9.16869 18.518 9.21385 18.9923 9.32677 19.4665C9.5526 20.3247 10.072 20.8667 10.9527 21.1151C11.9012 21.3861 12.8949 21.4312 13.8659 21.4538C17.276 21.4538 20.7086 21.4538 24.1412 21.4538C24.5702 21.4538 24.9767 21.499 25.2477 21.9055C25.6768 22.583 25.451 23.4637 24.7735 23.8928C24.6832 23.9605 24.5928 24.0057 24.4799 24.0283C23.7347 24.2767 22.9669 24.3218 22.1764 24.3444C18.9471 24.4122 15.7403 24.4122 12.5335 24.3444C11.5399 24.3218 10.5462 24.2089 9.57518 24.0057C7.29431 23.5314 6.14258 22.3571 5.75867 20.0537C5.66833 19.5343 5.62317 18.9923 5.55542 18.4503V14.2499C5.60059 13.8434 5.64575 13.4143 5.69092 13.0078C5.9845 10.4108 7.15881 9.12353 9.71068 8.53638C10.614 8.33313 11.5625 8.28796 12.4658 8.19763L22.4926 8.22022Z" fill="white"/>
<path d="M17.3437 24.7961C15.7177 24.7961 14.1143 24.7735 12.511 24.7509C11.4947 24.7283 10.4785 24.6154 9.48485 24.3896C7.02331 23.8702 5.75866 22.5604 5.35217 20.1214C5.28442 19.7375 5.23926 19.3536 5.21667 18.9923C5.19409 18.8342 5.17151 18.6761 5.14893 18.4954V18.4503V14.2047L5.19409 13.7982C5.21667 13.5046 5.26184 13.2336 5.28442 12.9626C5.60058 10.1849 6.91039 8.7622 9.64293 8.15246C10.3656 7.99438 11.0657 7.92664 11.7657 7.85889C11.9916 7.8363 12.2174 7.81372 12.4432 7.79114H12.4884H22.5378H22.5604C22.7184 7.81372 22.8991 7.8363 23.0572 7.8363C23.4411 7.88147 23.825 7.90405 24.2315 7.99438C25.5187 8.2428 26.0155 8.96545 25.7897 10.2753C25.722 10.8398 25.2703 11.3141 24.6606 11.4044C24.3896 11.4496 24.1186 11.4722 23.825 11.4722C20.3246 11.4947 16.8017 11.5173 13.3014 11.5173C12.8045 11.5173 12.2851 11.5625 11.7883 11.6528C10.2301 11.9012 9.71068 12.4658 9.57518 14.0466C9.57518 14.1821 9.5526 14.3176 9.5526 14.4305C9.64293 14.4305 9.80101 14.4305 9.93651 14.4305H24.3444C24.638 14.4305 24.9316 14.5208 25.18 14.6563C25.9478 15.1532 25.88 15.8984 25.8349 16.4404C25.8349 16.5081 25.8123 16.5985 25.8123 16.6662C25.7671 17.2985 25.3832 17.7276 24.6832 17.8631C24.4347 17.9083 24.2089 17.9083 23.9831 17.9083H9.64293C9.62034 17.9083 9.57518 17.9083 9.5526 17.9083C9.5526 17.9309 9.5526 17.9535 9.5526 17.976V17.9986C9.57518 18.4729 9.62034 18.9245 9.73326 19.3762C9.91392 20.0762 10.343 20.5053 11.0657 20.7086C12.0367 20.9796 13.0304 21.0247 13.8885 21.0247C16.5533 21.0473 19.2633 21.0473 21.9055 21.0473H24.1637C24.5025 21.0473 25.2026 21.0473 25.6091 21.7022C25.88 22.1313 25.9478 22.6281 25.8349 23.1024C25.722 23.5766 25.4284 23.9831 24.9993 24.2541C24.8864 24.3218 24.7509 24.3896 24.6154 24.4348C23.7798 24.7057 22.9217 24.7509 22.199 24.7735C20.5956 24.7735 18.9697 24.7961 17.3437 24.7961ZM5.96191 18.4277C5.98449 18.5858 6.00708 18.7439 6.00708 18.9019C6.05224 19.2633 6.09741 19.6246 6.14257 19.9859C6.5039 22.1087 7.52013 23.1475 9.64293 23.5992C10.5914 23.8024 11.5625 23.9153 12.5335 23.9379C15.7177 24.0057 18.9697 24.0057 22.1764 23.9379C22.8314 23.9153 23.6218 23.8702 24.3444 23.6443C24.4122 23.6218 24.4799 23.5766 24.5477 23.554C24.7735 23.3959 24.9541 23.1701 25.0219 22.8991C25.0896 22.6281 25.0445 22.3571 24.8864 22.1087C24.7509 21.9055 24.5702 21.8377 24.1412 21.8377H21.8829C19.2633 21.8377 16.5307 21.8377 13.8659 21.8151C12.9626 21.8151 11.9012 21.77 10.8398 21.4538C9.82359 21.1828 9.19127 20.5279 8.94286 19.5117C8.82994 19.0149 8.76219 18.4954 8.76219 17.9986V17.976C8.73961 17.6599 8.71703 17.434 8.89769 17.2308C9.07835 17.0276 9.32677 17.0276 9.64293 17.0276H24.0057C24.1863 17.0276 24.3896 17.0276 24.5702 16.9824C24.9316 16.9146 25.0219 16.7566 25.0445 16.5307C25.0445 16.4404 25.0671 16.3726 25.0671 16.2823C25.1122 15.7177 25.1122 15.4467 24.7961 15.2435C24.6832 15.1758 24.5251 15.1306 24.3896 15.1306H9.93651C9.43968 15.1306 9.1461 15.1306 8.92027 14.9048C8.69444 14.6789 8.73961 14.3628 8.76219 13.8885C8.92027 11.9464 9.73326 11.0657 11.6528 10.7721C12.1948 10.6818 12.7368 10.6366 13.3014 10.614C16.8243 10.614 20.3246 10.5914 23.8476 10.5914C24.096 10.5914 24.3218 10.5914 24.5477 10.5463C24.7735 10.5237 24.9541 10.343 24.9767 10.1172C25.1348 9.21386 24.909 8.92028 24.0508 8.73962C23.6895 8.67187 23.3282 8.62671 22.9669 8.60412C22.8088 8.58154 22.6281 8.55896 22.47 8.55896H12.4884C12.2625 8.58154 12.0367 8.60412 11.8109 8.62671C11.1108 8.69445 10.4559 8.73962 9.77842 8.8977C7.40722 9.48486 6.3684 10.6366 6.09741 13.0755C6.07483 13.3465 6.02966 13.6175 6.00708 13.9111L5.96191 14.295V18.4277Z" fill="white"/>
</g>
<defs>
<clipPath id="clip0_1015_16787">
<rect width="32" height="32" fill="white"/>
</clipPath>
</defs>
</svg>
