<svg width="32" height="32" viewBox="0 0 32 32" fill="none" xmlns="http://www.w3.org/2000/svg">
<path d="M16 32C24.8366 32 32 24.8366 32 16C32 7.16344 24.8366 0 16 0C7.16344 0 0 7.16344 0 16C0 24.8366 7.16344 32 16 32Z" fill="#48A2BF"/>
<g clip-path="url(#clip0_299_15444)">
<path d="M11.3713 7.50108C15.9136 7.49964 20.4561 7.49964 24.999 7.50108C25.0004 9.01171 25.0004 10.5221 24.999 12.0322C20.4566 12.0336 15.914 12.0336 11.3713 12.0322C11.3699 10.5216 11.3699 9.01119 11.3713 7.50108Z" fill="white"/>
<path d="M6.0057 13.7369C7.47115 13.7291 8.93685 13.7291 10.4028 13.7369C10.4104 15.2447 10.4104 16.7527 10.4028 18.261C8.93691 18.2688 7.47121 18.2689 6.0057 18.2614C5.9981 16.7534 5.9981 15.2452 6.0057 13.7369Z" fill="white"/>
<path d="M11.3748 13.7369C14.6533 13.7298 17.9316 13.7298 21.2097 13.7369C21.2166 15.2447 21.2166 16.7527 21.2097 18.261C17.9312 18.2681 14.6529 18.2681 11.3748 18.261C11.3679 16.7532 11.3679 15.2452 11.3748 13.7369Z" fill="white"/>
<path d="M11.3788 19.9741C12.8418 19.9578 14.3045 19.9578 15.767 19.9741C15.7822 21.4784 15.7824 22.9833 15.7677 24.489C14.3047 24.5039 12.842 24.5036 11.3796 24.4882C11.3644 22.9841 11.3641 21.4794 11.3788 19.9741Z" fill="white"/>
</g>
<defs>
<clipPath id="clip0_299_15444">
<rect width="19" height="17" fill="white" transform="translate(6 7.5)"/>
</clipPath>
</defs>
</svg>
