<svg width="32" height="32" viewBox="0 0 32 32" fill="none" xmlns="http://www.w3.org/2000/svg">
<path fill-rule="evenodd" clip-rule="evenodd" d="M16 32C24.8366 32 32 24.8366 32 16C32 7.16344 24.8366 0 16 0C7.16344 0 0 7.16344 0 16C0 24.8366 7.16344 32 16 32Z" fill="white"/>
<path fill-rule="evenodd" clip-rule="evenodd" d="M16 31.5C24.5604 31.5 31.5 24.5604 31.5 16C31.5 7.43959 24.5604 0.5 16 0.5C7.43959 0.5 0.5 7.43959 0.5 16C0.5 24.5604 7.43959 31.5 16 31.5ZM32 16C32 24.8366 24.8366 32 16 32C7.16344 32 0 24.8366 0 16C0 7.16344 7.16344 0 16 0C24.8366 0 32 7.16344 32 16Z" fill="#E6E9EC"/>
<g clip-path="url(#clip0_26163_90707)">
<path fill-rule="evenodd" clip-rule="evenodd" d="M6.5 21.277C6.75928 21.419 7.09957 21.6361 7.34264 21.803C7.43177 21.8657 7.53305 21.9199 7.63028 21.9825C7.68294 22.0159 7.71535 22.0326 7.76397 22.066C7.78827 22.0827 7.80853 22.0994 7.83284 22.112C7.86119 22.1287 7.8774 22.137 7.90576 22.1537L11.0252 24.1325C11.0697 24.1575 11.1102 24.1867 11.1588 24.2159L13.9906 26.0152C14.023 26.0361 14.0352 26.0402 14.0635 26.0611L15.4166 26.9169C15.4774 26.9503 15.5017 26.992 15.5706 26.9962V16.1006L15.1412 15.8459C15.1006 15.8251 15.0763 15.8084 15.0358 15.7833L14.6996 15.5829C14.2215 15.3241 13.7759 15.0068 13.2938 14.748C13.2452 14.723 13.229 14.7063 13.1763 14.6812L12.7469 14.4266C12.6416 14.3598 12.1635 14.0634 12.0785 14.0425V15.7624L13.8367 16.8103C13.8853 16.8395 13.9177 16.8603 13.9623 16.8854C14.0109 16.9104 14.0352 16.9397 14.0959 16.9522V24.3287C13.7881 24.1158 13.4599 23.9237 13.1439 23.7275L12.3783 23.2391C12.0663 23.022 11.7301 22.8425 11.4181 22.6296C11.3817 22.6046 11.3614 22.5962 11.3249 22.5712L10.6484 22.1412C10.5755 22.0994 10.5228 22.066 10.4539 22.0159C10.2068 21.8448 9.93945 21.6945 9.68827 21.5275C9.6194 21.4816 9.56269 21.4524 9.49382 21.4065C9.12111 21.1476 8.72004 20.9139 8.33923 20.6759C8.30682 20.655 8.27846 20.6342 8.25011 20.6133L7.95437 20.4254V11.5712C7.89765 11.5336 7.84094 11.5002 7.77612 11.4626C7.7113 11.4251 7.66269 11.3958 7.59787 11.3541L6.68635 10.8197C6.61748 10.7822 6.56482 10.7404 6.5 10.707V21.277Z" fill="#060606"/>
<path fill-rule="evenodd" clip-rule="evenodd" d="M16.4456 16.0838V20.2709L16.9844 19.9578C17.2315 19.8242 17.4584 19.6614 17.7055 19.5278C17.7501 19.5028 17.7663 19.4944 17.7987 19.4694C17.8311 19.4485 17.8635 19.436 17.8959 19.4193V16.9521C17.9445 16.9396 17.9607 16.9312 17.9972 16.9062C18.0337 16.8811 18.058 16.8728 18.0944 16.8519C18.2848 16.7392 18.4712 16.6056 18.6656 16.5054C18.929 16.3718 19.1801 16.2048 19.4313 16.0504C19.4961 16.0128 19.5488 15.9794 19.6177 15.9377L19.9985 15.7164C20.039 15.6914 20.0511 15.683 20.0917 15.658C20.2578 15.5703 20.4117 15.4534 20.5819 15.3616L20.7682 15.2489C20.8006 15.228 20.833 15.2155 20.8654 15.1988L22.1091 14.4557C22.3725 14.3138 22.6155 14.1426 22.8748 14.0007L23.2597 13.7669C23.3893 13.6876 23.5149 13.6166 23.6445 13.5331C23.7134 13.4914 23.7701 13.4622 23.8309 13.4204L24.0334 13.3035V20.4462C23.9767 20.4587 23.9605 20.4796 23.9119 20.5088L23.5554 20.7343C23.519 20.7593 23.4906 20.7802 23.446 20.8094C23.3974 20.8386 23.365 20.8637 23.3245 20.8887C23.2799 20.9138 23.2556 20.9346 23.2111 20.9597L22.8505 21.1809C22.5264 21.373 22.2226 21.59 21.8985 21.7821L20.9505 22.3874C20.9059 22.4166 20.8816 22.4291 20.8371 22.4584C20.4117 22.7548 19.958 23.0011 19.5285 23.2891C19.4516 23.3434 19.3705 23.3893 19.2936 23.4394L18.1066 24.1908C18.0701 24.2117 18.0296 24.2367 17.9932 24.2618C17.6407 24.4997 17.272 24.7043 16.9196 24.9422L16.4375 25.247V27.0003C16.5185 26.9794 16.6482 26.8792 16.7211 26.8333C16.8183 26.7707 16.9115 26.7206 17.0087 26.6538C17.2801 26.4659 17.5759 26.3115 17.8473 26.1236C17.9 26.0902 17.9405 26.061 17.9891 26.0318L18.7062 25.5768C18.7548 25.5475 18.7912 25.5225 18.8398 25.4933L22.6561 23.072C22.7087 23.0386 22.7533 23.0094 22.7978 22.9802L25.346 21.3646C25.3946 21.3312 25.4433 21.302 25.4919 21.277V10.7236C25.419 10.7403 25.4068 10.7654 25.3501 10.7988C25.2974 10.828 25.261 10.8489 25.2123 10.8781L24.3656 11.3832C24.078 11.5418 23.8106 11.7381 23.519 11.8883L21.2543 13.2326C21.1531 13.291 21.072 13.3453 20.9748 13.4037L20.5575 13.6542C20.2618 13.8086 19.8324 14.0716 19.561 14.247C19.5123 14.2804 19.4718 14.2929 19.4232 14.3263L18.5036 14.8773C18.4631 14.8982 18.4712 14.8982 18.4307 14.9233L18.143 15.0861C17.9729 15.1779 17.823 15.2906 17.6529 15.3825C17.6123 15.4033 17.6123 15.4117 17.5799 15.4284L17.2923 15.5912C17.1019 15.6872 16.5995 16.0504 16.4456 16.0838Z" fill="#060606"/>
<path fill-rule="evenodd" clip-rule="evenodd" d="M7.0625 10.0053C7.11922 10.0178 7.15163 10.0512 7.20429 10.0805C7.3947 10.1848 7.56485 10.3101 7.7593 10.4102L9.29875 11.3287C10.032 11.7879 10.7936 12.197 11.5309 12.6562L11.6687 12.7355C11.7213 12.7647 11.7578 12.7898 11.8064 12.8148L12.645 13.3158C12.6815 13.3366 12.6774 13.3366 12.7058 13.3533C13.0987 13.5996 13.512 13.8084 13.9009 14.063L15.1486 14.8019C15.1973 14.8311 15.2337 14.8562 15.2823 14.8854C15.4282 14.9772 15.9508 15.3028 16.0034 15.3028C16.0804 15.3028 16.526 15.0106 16.6395 14.9397L16.8582 14.8061C16.9312 14.7602 16.996 14.7309 17.0689 14.685C17.1459 14.6391 17.2026 14.6057 17.2796 14.5598L17.7049 14.301C17.7779 14.255 17.8427 14.2216 17.9115 14.1757L18.5557 13.8C18.5962 13.7791 18.6245 13.7583 18.661 13.7374C18.6975 13.7123 18.7218 13.6998 18.7663 13.6748L19.1958 13.4201C19.2646 13.3784 19.3416 13.3158 19.4226 13.2949C19.4105 13.2448 19.4024 13.249 19.3619 13.2239L17.9885 12.4099C17.4416 12.7063 16.9231 13.0528 16.3802 13.3575C16.3356 13.3825 16.2992 13.4076 16.2587 13.4368C16.1736 13.4911 16.0966 13.537 16.0075 13.5871L15.181 13.0945C14.8934 12.9442 14.6301 12.748 14.3425 12.5935C14.2776 12.556 14.2128 12.5142 14.1561 12.4808L12.4789 11.4873C12.4465 11.4664 12.4182 11.4497 12.3857 11.4288C12.3493 11.4038 12.325 11.3954 12.2885 11.3746L10.1414 10.0972C10.1009 10.0721 10.0968 10.0596 10.0401 10.0471C10.0847 9.98027 10.1373 9.97609 10.2103 9.93017C10.271 9.88843 10.3277 9.86755 10.3926 9.82998L12.2602 8.79051C12.3007 8.76547 12.3007 8.76129 12.3412 8.74042C12.3817 8.71955 12.4019 8.7112 12.4384 8.68615C12.5032 8.6444 12.568 8.61518 12.6329 8.58178L14.9623 7.28767C15.0028 7.26679 15.015 7.25427 15.0555 7.22922L16.0034 6.7074C16.0561 6.7074 16.7732 7.13738 16.9393 7.22505C16.9798 7.24592 17.0081 7.25844 17.0486 7.28349C17.0973 7.31271 17.1094 7.32524 17.1661 7.35028L19.7427 8.78216C19.9695 8.92827 20.6582 9.29981 20.9013 9.42505C21.1768 9.56698 21.4401 9.73814 21.7156 9.88008L23.2469 10.7359C23.2996 10.7651 23.3158 10.7734 23.3644 10.8027C23.5467 10.9154 23.5508 10.8194 23.8465 10.6524L24.3934 10.3309C24.4906 10.2767 24.8593 10.0345 24.9444 10.0137C24.9282 9.95939 24.8796 9.93852 24.8309 9.9093L24.2759 9.59621C23.9964 9.4501 23.7169 9.27059 23.4373 9.13283L22.8823 8.81973C22.6919 8.71955 22.5015 8.6277 22.3233 8.51082L19.5239 6.9537C19.4672 6.92448 19.4348 6.90778 19.3862 6.87438L18.2599 6.2482C18.2073 6.21898 18.1749 6.1981 18.1222 6.16888C18.0938 6.15218 18.0817 6.14801 18.0574 6.13548L16.5787 5.30892C16.4855 5.25047 16.0521 5 15.9994 5C15.9548 5 15.6429 5.19203 15.574 5.22543L12.3695 7.01214C12.3169 7.03719 12.2764 7.05806 12.2277 7.08729L9.9834 8.33548C9.93073 8.36471 9.90642 8.38558 9.84566 8.4148L9.6431 8.52751C9.60258 8.54839 9.60259 8.55674 9.57018 8.57344C9.52561 8.60266 9.477 8.61518 9.42838 8.64858L8.99896 8.88653C8.94224 8.91575 8.91389 8.9408 8.86122 8.96585L8.20898 9.33321C8.18467 9.34573 8.18467 9.34156 8.16442 9.35408C8.07124 9.40835 7.97401 9.44592 7.88489 9.50854C7.83222 9.54194 7.79981 9.55446 7.7431 9.58368L7.11517 9.9427C7.06655 9.97192 7.0787 9.94687 7.0625 10.0053Z" fill="#060606"/>
</g>
<defs>
<clipPath id="clip0_26163_90707">
<rect width="19" height="22" fill="white" transform="translate(6.5 5)"/>
</clipPath>
</defs>
</svg>
