<svg xmlns="http://www.w3.org/2000/svg" xml:space="preserve" viewBox="0 0 255 146">
  <path fill="#FFFEFE" d="M1 98c0-15.69 0-31.38.32-47.63a7.78 7.78 0 0 1 3.3-1.22c3.35 0 6.33.46 9.14-.06 2.52-.46 4.85-2 7.25-3.08 0 0 .02.02.33 0 .73-.06 1.15-.11 1.8-.1.23.07.71.16.78.52a11.78 11.78 0 0 0 3.54 2.55c4.13-.05 7.82-.07 11.96-.08 3.07.08 5.76.52 8.3.1 1.63-.25 3.05-1.78 4.94-2.8 2.86.86 5.35 1.8 7.93 2.75.9-.78 2.1-1.84 3.4-2.53 3.75 3.63 7.77 3.48 12.17 1.75 4.66.75 9.49 3.36 12.85-2.16 0 0 .02.02.33 0 .73-.06 1.15-.11 1.8-.1.23.07.71.16.78.52a11.78 11.78 0 0 0 3.54 2.55c4.13-.05 7.82-.07 11.96-.08 3.07.08 5.76.52 8.3.1 1.63-.25 3.05-1.78 4.94-2.8 2.86.86 5.35 1.8 7.93 2.75.9-.78 2.1-1.84 3.4-2.53 3.83 3.23 7.68 4.33 11.8 1 .02-.03.1-.07.2.1.1.18.4.43.52.68 4.48.7 9.3 3.31 12.5-2.19 0 0 .02.02.33 0 .73-.06 1.15-.11 1.8-.1.23.07.71.16.78.52a11.78 11.78 0 0 0 3.54 2.55c4.13-.05 7.82-.07 11.96-.08 3.07.08 5.76.52 8.3.1 1.63-.25 3.05-1.78 4.94-2.8 2.86.86 5.35 1.8 7.93 2.75.9-.78 2.1-1.84 3.4-2.53 3.75 3.63 7.77 3.48 12.17 1.75 4.66.75 9.49 3.36 12.85-2.16 0 0 .02.02.33 0 .73-.06 1.15-.11 1.8-.1.23.07.71.16.78.52a12.3 12.3 0 0 0 3.55 2.57c7.43.03 14.4.1 21.64.39 1.13.35 2.01.48 2.89.61 0 15.69 0 31.38-.34 47.64-1.4.95-2.47 1.33-3.92 1.65-1.14-.03-1.91 0-3.14-.07-6.16-.16-11.86-.21-17.67-.44-.4-.06-.69.06-1.36.19-2.12.17-3.86.32-5.98.44-.64 0-.9.02-1.42-.07-1.04.07-1.8.24-2.77.1-.74-.05-1.27.2-2.02.7-.12.45-.03.65.09.86.03 0 .08-.02.07-.48-2.53-.74-5.05-1.02-7.88-1.43a15.23 15.23 0 0 0-3.13 1.83c0 .02 0 .07-.07-.39-.68-.15-1.3.16-1.92.46-.02 0-.04 0-.03-.42-.49-.67-.98-.9-1.75-1.3-1.1-.12-1.94-.08-3.23-.11-4.81-.1-9.17-.14-13.73-.39a23.12 23.12 0 0 0-4.18 2.16c.02.03.08-.02.04-.45-.57-.63-1.1-.82-2-1.17-5.8-.23-11.21-.3-16.73-.53-.4-.06-.69.06-1.42.2-2.78.09-5.13.16-7.82.17-.8-.02-1.27.03-2.06-.05-.75-.1-1.2-.1-2.08-.08-2.82.08-5.2.14-7.9.07a15.27 15.27 0 0 0-3.12 1.83v-.34c-.5-.52-1-.63-1.65-.95-.67-.2-1.19-.21-2.09-.37-1.18-.1-2-.07-3.26-.1-4.81-.1-9.17-.14-13.75-.4-1.7.06-3.18.34-5.13.5-6.18-.19-11.9-.25-17.72-.48-.4-.06-.69.06-1.42.2-2.78.09-5.13.16-7.82.17-.81-.02-1.28.03-2.1-.06-1.08-.05-1.8.04-2.97.06-2.51-.02-4.58.02-6.97-.06a15.5 15.5 0 0 0-3.17 1.9c0 .02.05 0 .05-.41-.5-.52-1-.63-1.65-.95-.67-.2-1.19-.21-2.09-.37-1.18-.1-2-.07-3.26-.1-4.81-.1-9.17-.14-13.73-.39a23.12 23.12 0 0 0-4.18 2.16c.02.03.08-.02.04-.45-.57-.63-1.1-.82-2-1.17-5.8-.23-11.21-.3-16.73-.53-.4-.06-.69.06-1.41.2-2.47.09-4.5.17-6.99.17-5.1-.15-9.72-.24-14.62-.55A18.83 18.83 0 0 0 1 98m136.02-30.95c1.15 8.45-.94 14.14-6.37 16.7-1.34-8.19 2.44-16.76-2.06-25.5-4.99 8.67-.56 17.46-3.19 25.81-2.2-2.64-4.35-5.38-5.18-8.48-.86-3.24-.46-6.82-.63-10.66-6.75 10.29-.48 19.88 9.69 27.08l6.73-7.44c4.2-4.64 5.53-12.56 2.85-17.7-.23-.44-1.27-.45-1.84.19m-23.13 5.82 3.51-10.57c-8.61 5.24-9.63 16.14-2.55 21.13-.34-3.18-.69-6.44-.96-10.56m32.56-1.65c-1.84-5.92-3.06-7.36-7.28-8.08 4.77 6.61 5.14 13.56 1.68 22.01 5.1-4.15 6.24-8.33 5.6-13.93m-5.94 14.25s0 .04 0 0z"/>
  <path fill="#24A041" d="M27.01 49.02c-1-.75-2.01-1.49-3.03-2.97-.33-1.84-.65-2.94-1.35-4.03a17.9 17.9 0 0 0-1.6 4s-.03-.02-.42 0c-5.04-1.8-9.7-1.92-14.55-.33-.66-.62-1.14-.98-2-1.62.07 1.25.11 2.02.13 3.19-.02.9-.01 1.41 0 1.93-.85.2-1.7.4-2.87.71C1 33.7 1 17.37 1 1.06h255v48.47c-.88.34-1.76.2-2.88-.5-.98-1.5-1.65-3.14-2.47-3.22-4.37-.43-8.94.18-13.13-.84-4.24-1.02-5.74.45-6.5 4.06-1-.75-2.02-1.5-3.04-2.98-.33-1.84-.65-2.94-1.35-4.03a17.68 17.68 0 0 0-1.6 4s-.03-.02-.42 0a16.58 16.58 0 0 0-12.63-.12c-.28.1-.65 0-1.2-.23a78.1 78.1 0 0 0-2.15-1.96l.26-1.17h13.6l-.1-1.2h-16.48c-.38 1.9 3.92 5.45-2.24 4.46-.75-1.95-.18-4.67-3.82-3.94-12.25-.35-24.24-.35-36.23-.35l-.05 1.53c3.34 0 6.7-.2 10.01.08 1.51.13 2.95 1.18 4.1 1.89-1.1.4-1.9.7-2.81.74-1.9-.4-3.82-.1-5.4-.7-4.14-1.62-5.72.35-6.46 3.97a11.6 11.6 0 0 1-3.03-2.97c-.33-1.84-.65-2.94-1.35-4.03a17.9 17.9 0 0 0-1.6 4s-.03-.02-.42 0c-1.36-.12-2.6.1-3.28-.42-4.08-3.13-6.52-.54-8.93 2.35 0 0-.32-.25-.45-.9-.4-.82-.67-.98-1.17-1.38-.86-.8-1.5-1.39-2.15-1.96l.26-1.16h13.6l-.08-1.4c-5.75 0-11.5 0-17.56-.05-.83.26-1.33.57-2.2.84-1.1.06-1.82.17-2.8-.08-12.25-.35-24.24-.35-36.23-.35l-.05 1.53c3.34 0 6.7-.2 10.01.08 1.51.13 2.95 1.18 4.1 1.89-1.1.4-1.9.7-2.81.74-1.9-.4-3.82-.1-5.4-.7-4.14-1.62-5.72.35-6.46 3.97a11.6 11.6 0 0 1-3.03-2.97c-.33-1.84-.65-2.94-1.35-4.03a17.68 17.68 0 0 0-1.6 4s-.03-.02-.42 0a16.58 16.58 0 0 0-12.63-.12c-.28.1-.65 0-1.2-.23a127 127 0 0 0-2.15-1.96l.26-1.17h13.6l-.1-1.2H69.91c-.38 1.9 3.92 5.45-2.24 4.46-.75-1.95-.18-4.67-3.82-3.94-12.25-.35-24.24-.35-36.23-.35l-.02 1.53c3.33 0 6.68-.2 9.98.08 1.51.13 2.95 1.18 4.1 1.89-1.1.4-1.9.7-2.81.74-1.9-.4-3.82-.1-5.4-.7-4.14-1.62-5.72.35-6.46 3.97z"/>
  <path fill="#DA0202" d="M229.95 98.95c.3-.11.58-.23.97.21.11 3.85 2.27 4.07 4.75 4.27.34 4.76 3.45 2.16 5.6 2.59.25 0 .74-.03 1.02-.02.47-.44.65-.89 1.17-1.51 1.74.36 3.14.9 4.93 1.55 1.46.06 2.53 0 3.95-.2.16-1.81-.03-3.48-.17-5.38.13-.53.1-.82-.05-1.1 1.07-.39 2.14-.77 3.54-1.25.34 16.2.34 32.52.34 48.83H1V98.47c.88-.34 1.77-.21 2.91.55-.56 4.08 1.83 4.04 4.13 4.45.68.7 1.3 1.11 2.02 1.92 1.92.22 3.74.03 5.7.17.81.66 1.5.98 2.19 1.3l.25-.7c-.87-.3-1.75-.6-2.72-1.4.1-.73.31-.98.89-1.02 1.79.2 3.2.2 4.63.59 1.32 1.16 2.64 1.95 3.95 2.74.2-.47.42-.93.63-1.4a3.9 3.9 0 0 1-1.69-1.05c.11-1.08.15-1.8.5-2.6a7.85 7.85 0 0 0 1.48-2.25c.07-.45.08-.64.08-.82.3-.11.58-.23.97.21.11 3.85 2.26 4.08 4.75 4.27.34 4.76 3.45 2.17 5.6 2.59l1.03-.03c.46-.43.64-.88 1.16-1.5a19.6 19.6 0 0 1 4.83 1.95 80.6 80.6 0 0 0 9.21-1.08c1.24 2.4 4.15 2.67 7.9.61 1.1.11 1.85.09 2.74.28.7.1 1.28-.04 2.23-.13 1.12-.02 1.88-.08 2.96-.05.78.05 1.24 0 1.94-.05.25 0 .74-.03 1.1.01.8-.61 1.27-1.27 2.09-1.97 1.42.6 2.48 1.25 3.94 2.01 2.01-.21 3.62-.53 5.36-.51.81.66 1.5.98 2.19 1.3l.25-.7c-.87-.3-1.75-.6-2.72-1.4.1-.73.31-.98.89-1.02 1.79.2 3.2.2 4.63.59a25 25 0 0 0 3.95 2.74c.2-.47.42-.93.63-1.4a3.92 3.92 0 0 1-1.69-1.05c.11-1.08.15-1.81.53-2.63a14.2 14.2 0 0 0 1.53-3.04c.3-.11.58-.23.97.21.11 3.85 2.26 4.08 4.75 4.27.34 4.76 3.45 2.17 5.6 2.59.25 0 .74-.03 1.02-.02.47-.44.65-.89 1.17-1.51a19.6 19.6 0 0 1 4.83 1.95c2.94-.11 5.6-.5 8.27-.9l-.36-.96 6.97 3.2c.4-2.62.64-4.17 1.1-5.74.24 0 .7.06.71.32.05.43.07.6.07 1.17.97 1.1 1.96 1.8 3.09 2.72.7.1 1.27-.04 2.23-.13 1.12-.02 1.88-.08 2.96-.04.78.04 1.23-.01 1.93-.07.25 0 .75-.02 1.1.02.81-.61 1.27-1.27 2.1-1.97 1.42.6 2.48 1.25 3.94 2.01 2.01-.21 3.62-.53 5.36-.51.81.66 1.5.98 2.19 1.3l.25-.7c-.87-.3-1.75-.6-2.72-1.4.1-.73.31-.98.89-1.02 1.79.2 3.2.2 4.63.59a25 25 0 0 0 3.95 2.74c.2-.47.42-.93.63-1.4a3.9 3.9 0 0 1-1.69-1.05c.11-1.08.15-1.81.53-2.63a14.2 14.2 0 0 0 1.53-3.04c.3-.11.58-.23.97.21.11 3.85 2.26 4.08 4.75 4.27.34 4.76 3.45 2.17 5.6 2.59.25 0 .74-.03 1.02-.02.47-.44.65-.89 1.17-1.51a19.6 19.6 0 0 1 4.83 1.95c2.95-.12 5.64-.53 9.3-1.09 1.25 1.9 3.97 3.16 7.8.62 1.11.11 1.86.08 2.75.28.7.1 1.27-.04 2.22-.14 1.13-.01 1.88-.07 2.97-.03.78.04 1.23-.01 1.93-.07.25 0 .75-.02 1.1.02.81-.61 1.27-1.27 2.1-1.97 1.42.6 2.48 1.25 3.94 2.01 2.01-.21 3.62-.53 5.36-.51.81.66 1.5.98 2.19 1.3l.25-.7a8 8 0 0 1-2.73-1.4c.09-.78.28-1.07.82-1.09 1.8.27 3.25.27 4.71.66a25 25 0 0 0 3.95 2.74c.2-.47.42-.93.63-1.4a3.9 3.9 0 0 1-1.69-1.05c.11-1.08.15-1.81.53-2.63a14.5 14.5 0 0 0 1.53-3.04m-154.33 7.57-.19-.1s.03.2.2.1m67.84.1.1-.18s-.22.03-.1.19m89.69-1.1.55.22c-.05-.18-.1-.36-.55-.22m-67.24.03-.57-.18c.06.17.12.34.57.18m-68 0-.57-.18c.06.17.12.34.57.18m113.55 1.07.1-.19s-.22.03-.1.19m-181.94-.73.2-.5c-.18.04-.38.1-.2.5z"/>
  <path fill="#DD1818" d="M136.97 66.62c.62-.21 1.66-.2 1.89.24 2.68 5.14 1.35 13.06-2.85 17.7L129.28 92c-10.17-7.2-16.44-16.8-9.7-27.08.18 3.84-.22 7.42.64 10.66.83 3.1 2.98 5.84 5.18 8.48 2.63-8.35-1.8-17.14 3.19-25.8 4.5 8.73.72 17.3 2.06 25.49 5.43-2.56 7.52-8.25 6.32-17.13m-6.33 17.43-.18.6c.2-.07.39-.14.18-.6m-4.3.8.2-.6c-.2.07-.39.13-.2.6z"/>
  <path fill="#39A953" d="M42 44.92c-1.47-.62-2.9-1.67-4.42-1.8-3.3-.27-6.65-.08-9.98-.08l.02-1.53c11.99 0 23.98 0 36.41.56.62 1.69.8 2.8.7 3.93l-.82.05-3.32 2.9c-2.58-.96-5.07-1.89-8.27-2.9-2.35-1.29-3.75-2.98-5.97-.52-.55.6-2.85-.36-4.35-.6zm68 0c-1.47-.62-2.9-1.67-4.42-1.8-3.31-.27-6.67-.08-10.01-.08l.05-1.53c11.99 0 23.98 0 36.41.56.62 1.69.8 2.8.7 3.93l-.82.05-3.32 2.9c-2.58-.96-5.07-1.89-8.27-2.9-2.35-1.29-3.75-2.98-5.97-.52-.55.6-2.85-.36-4.35-.6zm68 0c-1.47-.62-2.9-1.67-4.42-1.8-3.31-.27-6.67-.08-10.01-.08l.05-1.53c11.99 0 23.98 0 36.41.56.62 1.69.8 2.8.7 3.93l-.82.05-3.32 2.9c-2.58-.96-5.07-1.89-8.27-2.9-2.35-1.29-3.75-2.98-5.97-.52-.55.6-2.85-.36-4.35-.6z"/>
  <path fill="#75C387" d="M231.47 49c.3-3.58 1.81-5.05 6.05-4.03 4.2 1.02 8.76.4 13.13.84.82.08 1.5 1.73 2.22 3-7 .3-13.97.22-21.4.19z"/>
  <path fill="#E13131" d="m128.04 102.05-.87 5.74-6.97-3.21.36.96c-2.66.4-5.33.79-8.25.6-.2-.78-.16-.98.09-1.18.2 0 .58.04.92-.07.13-1.35-.07-2.57-.3-4-.04-.2-.02-.59.03-.81.05-.23.07-.7.07-.7 1.48-.28 2.96-.56 4.68-.2 1.28 1.34 2.24 2.5 3.36 2.67 2.25.35 4.58.17 6.88.2zm69 3.78c-3.48 2.68-6.2 1.43-7.45-.48-3.66.56-6.35.97-9.28.79-.2-.78-.16-.98.09-1.18.2 0 .58.04.94-.11.33-1.42.3-2.68.26-3.94 1.33-.79 2.66-1.57 4.22-1.73 1.26 1.34 2.22 2.5 3.34 2.67 2.25.35 4.58.17 6.83.5.28 1.06.6 1.85 1.01 2.83.08.2.04.65.04.65zm-136 0c-3.39 2.2-6.3 1.94-7.54-.47-3.57.55-6.26.96-9.2.78-.2-.78-.15-.98.1-1.18.2 0 .58.04.94-.11.33-1.42.3-2.68.26-3.94 1.33-.79 2.66-1.57 4.22-1.73 1.26 1.34 2.22 2.5 3.34 2.67 2.25.35 4.58.17 6.83.5.28 1.06.6 1.85 1.01 2.83.09.2.04.65.04.65z"/>
  <path fill="#DF2323" d="M113.85 73.3c.31 3.7.66 6.95 1 10.13-7.08-4.99-6.06-15.9 2.55-21.13-1.26 3.8-2.39 7.18-3.55 11z"/>
  <path fill="#DF2222" d="M146.56 71.61c.53 5.2-.62 9.39-5.71 13.54 3.46-8.45 3.1-15.4-1.68-22.01 4.22.72 5.44 2.16 7.39 8.47z"/>
  <path fill="#63BB77" d="M199.99 46.42c.1-.38.28-.4 1.01-.26 1.37.05 2.18-.05 2.98-.15 5.85.78 1.55-2.77 1.93-4.66h16.48l.1 1.19h-13.6l-.26 1.17a15 15 0 0 1 2.33 2.53c.6 1.13.8 1.47 1.01 1.8-4.2 1.86-8.23 2-11.98-1.62zm-68 0c.1-.38.28-.4 1.01-.26 1.37.05 2.18-.05 3.28-.08 1.05-.25 1.8-.57 2.55-.9a22.13 22.13 0 0 1-1.7-2.62c0-.66.02-1.03.04-1.41h17.24l.08 1.4h-13.6l-.26 1.16c.64.57 1.29 1.15 2.27 2.39.51.89.7 1.12.87 1.36-4.1 3.29-7.95 2.2-11.78-1.04zm-68 0c.1-.38.28-.4 1.01-.26 1.37.05 2.18-.05 2.98-.15 5.85.78 1.55-2.78 1.93-4.66h16.48l.1 1.19H72.9l-.26 1.17a15 15 0 0 1 2.33 2.53c.6 1.13.8 1.47 1.01 1.8-4.2 1.86-8.23 2-11.98-1.62z"/>
  <path fill="#E96868" d="M235.68 102.98c-2.5.25-4.65.03-4.65-3.64 5.7-.33 11.4-.28 17.56.1.45.34.38.78.13.8-.45.3-.64.6-1.15 1.04-1.7.71-3.07 1.26-4.72 1.78-.47-.04-.66-.05-1.12-.06l-1.16.02c-1.03.29-1.74.58-2.7.92-.45.07-.63.1-.98-.13a6.74 6.74 0 0 0-1.2-.83zm-123.03-3.72c.47.12.45.59.14.8-.5.5-.7.78-1.22 1.22-1.7.7-3.07 1.26-4.72 1.78-.47-.04-.66-.05-1.12-.06l-1.16.02c-1.03.29-1.74.58-2.7.93-.45.07-.63.08-.98-.14a6.41 6.41 0 0 0-1.21-.83c-2.5.26-4.65.03-4.65-3.64 5.72-.33 11.44-.27 17.62-.08zm-80.97 3.72c-2.5.26-4.65.03-4.65-3.64a96.53 96.53 0 0 1 16.6.38c.34.86.3 1.13-.05 1.57a56.3 56.3 0 0 1-4.73 1.77c-.46-.04-.65-.05-1.11-.06l-1.17.02c-1.03.29-1.74.58-2.7.93-.45.07-.63.08-.98-.14a6.66 6.66 0 0 0-1.21-.83zm136 0c-2.5.26-4.65.03-4.65-3.64a96.53 96.53 0 0 1 16.6.38c.34.86.3 1.14-.05 1.57a52.6 52.6 0 0 1-4.73 1.77c-.47-.04-.66-.05-1.12-.06l-1.16.02c-1.03.29-1.74.58-2.7.93-.45.07-.63.08-.98-.14a6.66 6.66 0 0 0-1.21-.83z"/>
  <path fill="#80C891" d="M6.23 45.95c4.67-1.85 9.34-1.73 14.4.07-2.02 1.07-4.35 2.6-6.87 3.07-2.8.52-5.8.06-9.14.06-.44-.48-.45-1-.17-2a6.2 6.2 0 0 1 1.78-1.2z"/>
  <path fill="#E96B6B" d="M8 103.16c-2.26-.1-4.65-.06-3.83-3.93 4.64-.32 9.27-.23 14.37.14.47.29.48.72.4 1.1-2.72.8-5.34 1.22-8.28 1.7-1.1.38-1.88.69-2.67 1z"/>
  <path fill="#6EC081" d="M27.46 48.98c.29-3.58 1.87-5.55 6.01-3.94 1.58.62 3.5.32 5.4 1.07.12 1.35.1 2.07.1 2.8-3.69 0-7.38.02-11.51.07zm68 0c.29-3.58 1.87-5.55 6.01-3.94 1.58.62 3.5.32 5.4 1.07.12 1.35.1 2.07.1 2.8-3.69 0-7.38.02-11.51.07zm68 0c.29-3.58 1.87-5.55 6.01-3.94 1.58.62 3.5.32 5.4 1.07.12 1.35.1 2.07.1 2.8-3.69 0-7.38.02-11.51.07z"/>
  <path fill="#72C285" d="M39.42 48.9c-.44-.72-.43-1.44-.42-2.51A7.9 7.9 0 0 1 41.69 45c1.8.16 4.1 1.13 4.66.52 2.22-2.46 3.62-.77 5.6.58-1.18 1.1-2.6 2.64-4.22 2.9-2.55.41-5.24-.03-8.31-.1zm68 0c-.44-.72-.43-1.44-.42-2.51a7.9 7.9 0 0 1 2.69-1.38c1.8.16 4.1 1.13 4.66.52 2.22-2.46 3.62-.77 5.6.58-1.18 1.1-2.6 2.64-4.22 2.9-2.55.41-5.24-.03-8.31-.1zm68 0c-.44-.72-.43-1.44-.42-2.51a7.9 7.9 0 0 1 2.69-1.38c1.8.16 4.1 1.13 4.66.52 2.22-2.46 3.62-.77 5.6.58-1.18 1.1-2.6 2.64-4.22 2.9-2.55.41-5.24-.03-8.31-.1z"/>
  <path fill="#7FC790" d="M76.16 48.17c-.4-.46-.6-.8-.98-1.7.15-.56.52-.47.8-.57a16.56 16.56 0 0 1 12.64.12c-2.97 5.51-7.8 2.9-12.46 2.15zm136 0c-.4-.46-.6-.8-.98-1.7.15-.56.52-.47.8-.57a16.57 16.57 0 0 1 12.64.12c-2.97 5.51-7.8 2.9-12.46 2.15zm-67.66.03c2.31-3.14 4.75-5.73 8.83-2.6.68.52 1.92.3 3.3.42-2.83 5.49-7.64 2.87-12.12 2.18z"/>
  <path fill="#E96868" d="M128.27 102.04c-2.53-.02-4.86.16-7.11-.19-1.12-.17-2.08-1.33-3.13-2.45 4.33-.38 8.69-.35 13.5.08.47 1.05.48 1.7.1 2.43-1.14.1-1.9.14-2.67.19 0 0-.45-.07-.69-.06zm-68.23.01c-2.3-.03-4.63.15-6.88-.2-1.12-.17-2.08-1.33-3.13-2.45 4.33-.38 8.69-.35 13.5.08.47 1.05.48 1.7.1 2.43-1.14.1-1.9.14-2.9.16-.23-.04-.69-.02-.69-.02zm136 0c-2.3-.03-4.63.15-6.88-.2-1.12-.17-2.08-1.33-3.13-2.45a75.7 75.7 0 0 1 13.5.08c.47 1.05.48 1.7.1 2.43-1.14.1-1.9.14-2.9.16-.23-.04-.69-.02-.69-.02z"/>
  <path fill="#EA6F6F" d="M93.51 98.97c.05.96-.35 1.95-1.28 2.84-.49 1-.45 2.08-.4 3.17l1.75.7-.63 1.39a17.15 17.15 0 0 1-4.02-3.04c-.4-.89-.73-1.1-1.05-1.54 0-.23.25-.64.36-.69.1-.04.22-.3.22-.3s-.24-.25-.38-.5a4.93 4.93 0 0 0-1.22-1.05c-.48-.23-.69-.45-.82-.73l7.47-.25zm66.31 6.01 1.76.7-.63 1.39a17.15 17.15 0 0 1-4.02-3.04c-.4-.89-.73-1.1-1.05-1.54 0-.23.25-.64.36-.69.1-.04.22-.3.22-.3s-.24-.25-.38-.5a4.93 4.93 0 0 0-1.22-1.05c-.48-.23-.69-.45-.82-.73l7.47-.25c.05.96-.35 1.95-1.28 2.84-.49 1-.45 2.08-.4 3.17zm68 0 1.76.7-.63 1.39a17.07 17.07 0 0 1-4.02-3.05c-.4-.89-.72-1.1-1.04-1.53 0-.24.24-.64.35-.69.1-.04.22-.3.22-.3s-.24-.25-.33-.7c-.12-.76-.14-1.06-.16-1.37 1.74-.14 3.48-.3 5.6-.46-.01.96-.4 1.95-1.34 2.84-.49 1-.45 2.08-.4 3.17zm-208.8-4.89-.02-.65c2.02-.3 4.05-.37 6.52-.47.43.16.42.35.12.92-.76.63-1.22.88-1.95 1.31-.14 1.39 0 2.58.13 3.78l1.76.7-.63 1.39c-1.31-.79-2.63-1.58-4.02-3.04-.4-.89-.73-1.1-1.05-1.54 0-.23.25-.64.36-.69.1-.04.22-.3.22-.3s-.24-.25-.38-.5a6.27 6.27 0 0 0-1.06-.91z"/>
  <path fill="#EA6D6D" d="M153.7 99.15c.47.35.68.57 1.1 1.07.12.53.09.71-.4.86-4.75 0-9.05.02-13.28-.21.33-.72.59-1.19.84-1.65 2.39-.06 4.77-.12 7.73.02 1.14.13 1.7.05 2.26-.02.47-.04.93-.09 1.74-.07zm-68 0c.47.35.68.57 1.1 1.07.12.53.09.71-.4.86-4.75 0-9.05.02-13.28-.21.33-.72.59-1.19.84-1.65 2.08-.05 4.15-.1 6.85.14 1.47.13 2.3 0 3.14-.14.46-.04.93-.09 1.74-.07z"/>
  <path fill="#FEF8F8" d="M197.4 105.97c-.36-.14-.32-.58-.35-1.1-.02-.91 0-1.32.4-1.79 1.42-.08 2.46-.1 3.78-.06.69.07 1.08.07 1.54.44.44.32 1.1.37 1.14.23.27-.87.4-1.79.59-2.7 0 0 .02 0 .24.34a20.87 20.87 0 0 1 .26 4.65c-.76.06-1.5.12-2.68-.23a35.41 35.41 0 0 0-3.5-1.94l-.36.77 1.55 1.45c-.76.02-1.5.05-2.61-.06z"/>
  <path fill="#F5BDBD" d="M217.55 100.98s-.05.03.37.03c1.93.04 3.43.07 4.75.46a50.4 50.4 0 0 1-7.93.62c-.24-.06-.72.06-1.13 0-1.78-.11-3.15-.17-4.55-.4-.02-.2-.03-.56.44-.6 3-.06 5.52-.08 8.05-.1z"/>
  <path fill="#EA6D6D" d="M217.54 100.52c-2.52.49-5.05.51-7.97.31-.13-.68.13-1.15.4-1.61 2.52.28 5.04.56 7.57 1.3z"/>
  <path fill="#EA6F6F" d="M141.66 99.1c.05.58-.21 1.05-.54 1.95-.08.45-.03.82-.32.95a3.1 3.1 0 0 0-.8 1.45c.02.18 0 .56-.24.55-.24-.02-.72.02-.79-.37l-.45-2.73c.94-.65 1.89-1.3 3.14-1.8z"/>
  <path fill="#DE1A1A" d="M214.99 102.15c2.5-.1 4.99-.22 7.65-1.11.04-1.06-.08-1.33-.2-1.6.26-.01.51-.03 1.15-.03.4.33.42.63.52 1.54.08.6.02.9.02.9s-.24.4-.62.75c-1.42.54-2.45.72-3.83 1.04-.8-.04-1.27-.22-2.07-.52-1.07-.07-1.8-.01-2.55-.2-.05-.43-.06-.6-.07-.77z"/>
  <path fill="#EA6F6F" d="M209.66 99.1c.04.58-.22 1.05-.56 1.77-.07.26-.06.63-.33.95-.44.7-.62 1.07-.77 1.63.02.18 0 .56-.24.55-.24-.02-.72.02-.79-.37-.2-1.17-.32-1.95-.44-2.73.94-.65 1.88-1.3 3.13-1.8z"/>
  <path fill="#E44545" d="M248.97 100.22s.07-.44.08-.67c.78-.25 1.55-.3 2.7-.26.52.35.55.64.15 1.44-.54 1.7-.77 2.91-1.17 4.17-.19.03-.57 0-.6-.35-.39-1.38-.72-2.4-1.1-3.66a7 7 0 0 1-.06-.67z"/>
  <path fill="#DF1E1E" d="M67.17 99.41c.52 0 1.04.01 1.72.52.15.7.12.9-.27 1.2a22.6 22.6 0 0 0-2.63 3.34c.02.03.08.09.37-.26.31-.64.33-.94.47-1.45.1-.7.07-1.17.1-1.93l.24-1.42z"/>
  <path fill="#FBE2E2" d="M71.02 106.01c-.45.05-.9.1-1.68-.21-.31-.56-.3-.74.08-1.04.62-1.33.86-2.55 1.11-3.77 0 0-.04.02.16.2.55.21.89.25.98.8-.08.87.1 1.2.3 1.53.04-.01 0-.08-.35.06-.44.9-.52 1.67-.6 2.43z"/>
  <path fill="#EA6F6F" d="M200.01 101.84c0-.65 0-1.3-.02-2.29.83-.36 1.66-.4 2.75.15.22.85.18 1.13-.07 1.45-.55.3-.9.55-1.59.8-.6-.03-.83-.07-1.07-.1z"/>
  <path fill="#82C993" d="M21.34 46.02c.1-1.32.5-2.65 1.28-3.61.34 1.4.31 2.41.29 3.44l-1.57.17zm68 0c.1-1.32.5-2.65 1.28-3.61.34 1.4.31 2.41.29 3.44l-1.57.17zm68 0c.1-1.32.5-2.65 1.28-3.61.34 1.4.31 2.41.29 3.44l-1.57.17zm68 0c.1-1.32.5-2.65 1.28-3.61.34 1.4.31 2.41.29 3.44l-1.57.17z"/>
  <path fill="#EA6F6F" d="M71.92 101.48a3.92 3.92 0 0 1-1.24-.31 7.76 7.76 0 0 1 2.97-2.08c.06.6-.2 1.06-.53 1.96-.08.45-.02.82-.34.79-.5-.14-.68-.25-.86-.36zm-5.12-2.22c.31.53.25.9-.08 1.61-.6.58-.94.83-1.64 1.09-.6-.04-.83-.08-1.07-.12L64 99.55c.8-.36 1.62-.4 2.8-.29z"/>
  <path fill="#DF1E1E" d="M135.17 99.41c.52 0 1.04.01 1.72.52.15.7.12.9-.25 1.16-.88 1.04-1.4 2.02-1.81 2.64.1-1.11.07-1.86.1-2.9l.24-1.42z"/>
  <path fill="#EA6F6F" d="M134.8 99.26c.31.53.25.9-.08 1.61-.6.58-.94.83-1.64 1.09-.6-.04-.83-.08-1.07-.12l-.02-2.29c.8-.36 1.62-.4 2.8-.29z"/>
  <path fill="#FBE2E2" d="M206.53 100.92c.12.76.25 1.54.42 3.04.06 1.16.06 1.6.07 2.05-.46.06-.9.11-1.7.07-.32-.29-.31-.47.08-1.05.64-1.6.89-2.82 1.14-4.04v-.07zm-68 0c.12.76.25 1.54.42 3.04.06 1.16.06 1.6.07 2.05-.46.06-.9.11-1.68-.2-.31-.57-.3-.75.08-1.05.62-1.33.86-2.55 1.11-3.77v-.07z"/>
  <path fill="#DA0202" d="M206.46 100.53c-.17 1.68-.42 2.9-1.04 4.23-.4-.95-.43-2.02-.66-3.42.4-.65 1.02-.96 1.7-.8z"/>
  <path fill="#DF1E1E" d="M202.88 101.11c.04-.28.08-.56.13-1.26.52-.19 1.01.05 1.5.72a20.06 20.06 0 0 1-.6 3.12c-.04.14-.7.1-1.02-.55.03-1.13.01-1.58 0-2.03z"/>
  <path fill="#DC0F0F" d="M179.9 101.13c.03-.27.07-.55.12-1.24.54-.23 1.07-.04 1.35.91-.3 1.9-.34 3.06-.39 4.2 0 0-.39-.05-.67-.41-.33-1.4-.37-2.43-.41-3.46z"/>
  <path fill="#EA6D6D" d="M222.17 99.34c.4.37.5.64.66 1.34-1.48.4-2.98.37-4.94.32-.54-.21-.63-.4 0-.86 1.05-.3 1.39-.34 1.72-.38.76-.18 1.52-.35 2.56-.42z"/>
  <path fill="#DA0202" d="M138.53 100.58c-.25 1.63-.5 2.85-1.13 3.8-.4-1.3-.4-2.33-.41-3.35.02-.2.05-.4.06-.9.49-.18.98-.07 1.48.45zm-68 0c-.25 1.63-.5 2.85-1.13 3.8a10.84 10.84 0 0 1-.35-4.25c.49-.18.98-.07 1.48.45z"/>
  <path fill="#DC0F0F" d="M43.9 101.13c.03-.28.07-.55.12-1.24.54-.23 1.07-.04 1.35.91-.3 1.9-.34 3.06-.39 4.2 0 0-.39-.05-.67-.41-.33-1.4-.37-2.43-.41-3.46z"/>
  <path fill="#B7DFC0" d="M91.14 45.91c-.2-1.09-.18-2.1-.14-3.51.33.71.65 1.81.9 3.29-.05.38-.53.3-.76.22zm-68 0c-.2-1.09-.18-2.1-.14-3.51.33.71.65 1.81.9 3.29-.05.38-.53.3-.76.22z"/>
  <path fill="#F8CDCD" d="M181.34 104.85c-.31-1-.27-2.14.06-3.61.3-.33.24-.28.22-.3.01 1.23.05 2.5-.28 3.91z"/>
  <path fill="#B7DFC0" d="M227.14 45.91c-.2-1.09-.18-2.1-.14-3.51.33.71.65 1.81.9 3.29-.05.38-.53.3-.76.22z"/>
  <path fill="#F8CDCD" d="M45.34 104.85c-.31-1-.27-2.14.06-3.61.3-.33.24-.28.22-.3.01 1.23.05 2.5-.28 3.91z"/>
  <path fill="#B7DFC0" d="M159.14 45.91c-.2-1.09-.18-2.1-.14-3.51.33.71.65 1.81.9 3.29-.05.38-.53.3-.76.22z"/>
  <path fill="#EA6F6F" d="M83.6 99.09c-.49.27-1.32.4-2.35.33a4.47 4.47 0 0 1 2.34-.33zm68.03.01c-.24.2-.8.27-1.5.12.3-.22.75-.23 1.5-.12zm67.77.35c-.12.35-.46.4-1.3.44.03-.24.56-.5 1.3-.44z"/>
  <path fill="#DF2222" d="M140.5 85.5c0 .01 0-.03 0 0z"/>
  <path fill="#7FC790" d="M143.79 47.43a3.3 3.3 0 0 1-.67-1.1c.16-.26.43-.1.73.54.03.48-.04.52-.06.56z"/>
  <path fill="#A9DAB5" d="M67.67 45.8c-.5.31-1.3.41-2.4.36-.45-1.28-.62-2.4-.98-3.74 3.2-1.29 2.63 1.43 3.38 3.38zm68.31.21c-.8.1-1.61.2-2.7.15-.46-1.28-.63-2.4-1-3.74.55-.31 1.27-.42 2.4-.22.43.49.47.66.46 1.17.26 1.1.55 1.87.84 2.64zm67.69-.21c-.5.31-1.3.41-2.4.36-.45-1.28-.62-2.4-.98-3.74 3.2-1.29 2.63 1.43 3.38 3.38z"/>
  <path fill="#39A953" d="M135.19 43.03a9.1 9.1 0 0 1-.15-.79c.48-.57.98-.88 1.8-1.14.3.43.3.8-.03 1.53-.75.37-1.19.39-1.62.4z"/>
  <path fill="#A9DAB5" d="M6.06 45.69c-.33.5-.83.74-1.59 1.08-.3-.68-.34-1.45-.42-2.7.87.64 1.35 1 2 1.62z"/>
  <path fill="#FBDFDF" d="M15.62 105.23c-1.82.19-3.64.38-5.2.17a13.2 13.2 0 0 1 2.74-1.47c.45-.23.65-.43 1.15-.6l1.73.19c0 .02-.04 0-.04 0-.2.26-.41.51-.48 1.27.13.5.1.44.1.44zm68 0c-1.6.31-3.2.63-5.21.56-.38-.56-.36-.74.01-.86 1.09-.27 1.82-.6 2.74-1 .45-.23.65-.43 1.15-.6l1.73.19c0 .02-.04 0-.04 0-.2.26-.41.51-.48 1.27.13.5.1.44.1.44zm68.38-1.71c-.2.26-.41.51-.48 1.27.13.5.1.44.1.44-1.6.31-3.2.63-5.21.56-.38-.56-.36-.74.01-.86 1.09-.27 1.82-.6 2.74-1 .45-.23.65-.43 1.15-.6l1.73.19c0 .02-.04 0-.04 0zm65.95-.28c.46.18.92.36 1.7.39.31-.15.29-.22.29-.22-.2.28-.38.57-.43 1.36.14.52.11.46.11.46-1.6.31-3.2.63-5.21.56-.38-.56-.36-.74.01-.86 1.09-.27 1.82-.6 2.74-1 .45-.23.65-.43.8-.69z"/>
  <path fill="#FFF" d="M107.12 103.09c1.38-.55 2.76-1.1 4.5-1.43.44 1.25.51 2.28.58 3.3-.05.2-.1.4-.16.9a21.69 21.69 0 0 1-4.56-1.77 1.53 1.53 0 0 1-.36-1zm136 0c1.38-.55 2.76-1.1 4.5-1.44.39 1.23.4 2.24.4 3.5l-.03.79c-1.4-.54-2.8-1.09-4.52-1.84a1.56 1.56 0 0 1-.35-1.01z"/>
  <path fill="#EF9393" d="M250.91 104.86c.22-1.22.45-2.43.94-3.91.46 1.4.65 3.08.4 4.63-.74-.32-1.04-.52-1.34-.72z"/>
  <path fill="#FFF" d="M179.58 101.29c.36.87.4 1.9.53 3.3.04.57 0 .77-.07 1.26a21.72 21.72 0 0 1-4.56-1.76c-.34-.47-.35-.74-.36-1 1.38-.55 2.76-1.1 4.46-1.8z"/>
  <path fill="#DB0808" d="M12.97 104.02c-.76.32-1.52.65-2.64.97a6.06 6.06 0 0 1-2.29-1.52 4.53 4.53 0 0 1 2.65-1.03c.36.37.38.55.51.99a5.4 5.4 0 0 0 1.77.59z"/>
  <path fill="#FEF8F8" d="M132 106.03c-.99-.7-1.98-1.4-2.57-2.56a8.53 8.53 0 0 1 3.74-.38c.43.38.63.64.83.9l-.35.03c-1.32.02-2.28.02-3.78.02l2.14 1.99zm-65.3-3.06c0 .3-.03.6-.66 1.05-1.6.16-2.6.16-4 .16l1.97 1.85c-.76.03-1.51.05-2.62-.06-.35-.14-.3-.58-.34-1.1-.02-.91 0-1.32.4-1.79 1.42-.08 2.46-.1 3.93-.07.74.02 1.03-.01 1.33-.04z"/>
  <path fill="#FFF" d="M43.58 101.29c.36.87.4 1.9.53 3.3.04.57 0 .77-.07 1.26a21.72 21.72 0 0 1-4.56-1.76c-.34-.47-.35-.74-.36-1 1.38-.55 2.76-1.1 4.46-1.8z"/>
  <path fill="#FADADA" d="M235.67 103.43c.36-.26.7-.06 1.3.7 1.13.35 2.02.14 3.15-.1.24-.04.72-.07.8.27.08.8.1 1.26.11 1.72-1.9-.43-5.02 2.17-5.36-2.6z"/>
  <path fill="#E23939" d="M200.14 106.25c-.65-.7-1.16-1.19-1.68-1.67l.35-.77c1.03.5 2.06 1.02 3.13 1.9-.53.5-1.1.63-1.8.54z"/>
  <path fill="#FADADA" d="M167.67 103.43c.36-.26.7-.06 1.3.7 1.13.35 2.02.14 3.15-.1.24-.04.72-.07.8.27.08.8.1 1.26.11 1.72-1.9-.42-5.02 2.17-5.36-2.6z"/>
  <path fill="#E23939" d="M132.14 106.25c-.65-.7-1.16-1.18-2.27-2.2 1.5 0 2.46 0 3.77.32.35.78.35 1.24.35 1.7a4.9 4.9 0 0 1-1.85.18z"/>
  <path fill="#FADADA" d="M99.67 103.43c.36-.26.7-.06 1.3.7 1.13.35 2.02.14 3.15-.1.24-.04.72-.07.8.27.08.8.1 1.26.11 1.72-1.9-.42-5.02 2.17-5.36-2.6z"/>
  <path fill="#E23939" d="M64.14 106.25c-.65-.71-1.17-1.2-2.1-2.07 1.4 0 2.4 0 3.7.19.33.19.27.13.23.51-.02.65 0 .92.02 1.2-.57.13-1.15.26-1.85.17z"/>
  <path fill="#FADADA" d="M31.67 103.43c.36-.26.7-.06 1.3.7 1.13.35 2.02.14 3.15-.1.24-.04.72-.07.8.27.08.8.1 1.26.11 1.72-1.9-.42-5.02 2.17-5.36-2.6z"/>
  <path fill="#FEF8F8" d="M134.37 106.12c-.38-.5-.38-.97-.37-1.78.01-.35 0-.34.17-.27.18.06.54.02.54.02.53-.98 1.05-1.96 1.93-3 .36.96.37 1.99.4 3.4 0 .57-.01.75-.03 1.21a6.4 6.4 0 0 1-2.64.42z"/>
  <path fill="#FFF" d="m146.07 104.87-.07.82c-1.06-.38-2.12-1.03-3.77-1.74-.95-.18-1.13-.44-.74-.88 1.76-.03 3.1 0 4.5.33l.08 1.47zm68 0-.07.82c-1.06-.38-2.12-1.03-3.77-1.74-.95-.18-1.13-.44-.74-.88 1.76-.03 3.1 0 4.5.33l.08 1.47z"/>
  <path fill="#FEF8F8" d="M66.37 106.12c-.4-.32-.42-.59-.42-1.27a15.17 15.17 0 0 1 2.67-3.72c.38.92.39 1.95.42 3.36 0 .57-.01.75-.03 1.21a6.4 6.4 0 0 1-2.64.42z"/>
  <path fill="#FFF" d="m78.07 104.87-.07.82c-1.06-.38-2.12-1.03-3.77-1.74-.95-.19-1.13-.44-.73-.88 1.75-.03 3.1 0 4.48.33l.09 1.47zm-61.7-1.13c-.37-.22-.32-.2 0-.44a20.6 20.6 0 0 1 3.51-.57c.32.2.65.41 1.04.92-1.34.3-2.76.3-4.55.09z"/>
  <path fill="#EF9393" d="M73.1 103.13c0 .38.18.63.77.87-.23.76-.7 1.42-1.52 1.6-.37-1.02-.37-1.59-.37-2.16 0 0 .03.07.25-.1.44-.18.65-.2.86-.21z"/>
  <path fill="#FFF" d="M84.37 103.74c-.37-.22-.32-.2 0-.44a20.6 20.6 0 0 1 3.51-.57c.32.2.65.41 1.04.92-1.34.3-2.76.3-4.55.09z"/>
  <path fill="#EF9393" d="M141.1 103.13c0 .38.18.64.77.87-.24.76-.7 1.42-1.52 1.7-.36-.81-.36-1.25-.36-1.7 0 0 .03-.37.28-.64.44-.26.63-.25.82-.23z"/>
  <path fill="#FFF" d="M152.37 103.74c-.37-.22-.32-.2 0-.44a20.6 20.6 0 0 1 3.51-.57c.32.2.65.41 1.04.92-1.34.3-2.76.3-4.55.09z"/>
  <path fill="#EF9393" d="M209.1 103.13c0 .38.18.64.77.87-.24.76-.7 1.42-1.52 1.7-.36-.81-.36-1.25-.36-1.7 0 0 .03-.37.28-.64.44-.26.63-.25.82-.23z"/>
  <path fill="#FFF" d="M220.3 103.67c-.36-.26-.34-.19-.3-.18 1.06-.17 2.09-.35 3.5-.65.71.09 1.03.3 1.42.8-1.38.3-2.82.3-4.63.03z"/>
  <path fill="#FDEEEE" d="M250.73 104.9c.48.16.78.36 1.17.83-.98.31-2.05.37-3.51.31-.4-.28-.39-.45-.16-.84.23-.21.66-.26.98-.26.53 0 .74-.02.95-.03 0 0 .38.02.57-.01z"/>
  <path fill="#F3ABAB" d="M23.9 104.62a8.87 8.87 0 0 1-.2-3.14c.32.26.35.44.39.61-.05.73-.09 1.45-.2 2.53z"/>
  <path fill="#E44545" d="M219.76 105.56c-.14-.33-.1-.27-.14-.29l2.58.89-.25.7c-.69-.32-1.38-.64-2.2-1.3zm-68 0c-.14-.33-.1-.27-.14-.29l2.58.89-.25.7c-.69-.32-1.38-.64-2.2-1.3zm-68 0c-.14-.33-.1-.27-.14-.29l2.58.89-.25.7c-.69-.32-1.38-.64-2.2-1.3zm-68 0c-.14-.33-.1-.27-.14-.29l2.58.89-.25.7c-.69-.32-1.38-.64-2.2-1.3z"/>
  <path fill="#F3ABAB" d="M227.9 104.62a9.44 9.44 0 0 1-.01-2.72c.15.9.11 1.64 0 2.72zm-68 0a9.44 9.44 0 0 1-.01-2.72c.15.9.11 1.64 0 2.72z"/>
  <path fill="#DF1E1E" d="M132.95 102.96c-1.04.02-2.08.04-3.5.12-.4-.11-.42-.29-.47-.72.75-.3 1.51-.35 2.66-.45.61-.03.85 0 1.35.31.16.42.06.58-.04.74z"/>
  <path fill="#F3ABAB" d="M91.9 104.62a9.44 9.44 0 0 1-.01-2.72c.15.9.11 1.64 0 2.72z"/>
  <path fill="#E96B6B" d="M24.4 102.02c-.35-.1-.38-.28-.42-.73.44-.52.9-.77 1.59-1.14a4.5 4.5 0 0 1-1.17 1.87z"/>
  <path fill="#F09595" d="M242.85 103.06c.28.3.29.56.28 1.21-.2.84-.37 1.29-.84 1.35a8.87 8.87 0 0 1-.28-2.62c.18 0 .37.02.84.06z"/>
  <path fill="#E44545" d="M241.73 103c.27.75.27 1.5.27 2.62 0 .37-.48.4-.73.4-.25-.46-.27-.92-.3-1.95a11.7 11.7 0 0 0-.07-1.05l.83-.02z"/>
  <path fill="#F09595" d="M174.85 103.06c.28.3.29.56.28 1.21-.2.84-.37 1.29-.84 1.35A9.28 9.28 0 0 1 174 103c.18 0 .37.02.84.06z"/>
  <path fill="#E44545" d="M173.73 103c.27.75.27 1.5.27 2.62 0 .37-.48.4-.73.4-.25-.46-.27-.92-.3-1.95-.01-.57-.07-1.05-.07-1.05l.83-.02z"/>
  <path fill="#F09595" d="M106.85 103.06c.28.3.29.56.28 1.21-.2.84-.37 1.29-.84 1.35A9.28 9.28 0 0 1 106 103c.18 0 .37.02.84.06z"/>
  <path fill="#E44545" d="M37.28 106.02c-.26-.46-.28-.92-.3-1.95-.02-.57-.08-1.05-.08-1.05.19 0 .37 0 .83.36.27 1.11.28 1.86.29 2.6l-.74.04zm68.45-3.02c.27.75.27 1.5.27 2.62 0 .37-.48.4-.73.4-.25-.46-.27-.92-.3-1.95-.01-.57-.07-1.05-.07-1.05l.83-.02z"/>
  <path fill="#F09595" d="M38.3 106c-.3-.76-.3-1.5-.3-2.63.2-.36.39-.35.85-.31.28.3.29.56.28 1.21-.2.84-.37 1.29-.83 1.72z"/>
  <path fill="#E44545" d="M207.76 104c.23.45.23.89.24 1.66 0 .33-.49.35-.74.35-.25-.44-.25-.89-.23-1.66.01-.33.49-.37.73-.35zm-68 0c.23.45.23.89.24 1.66 0 .33-.49.35-.74.35-.25-.44-.25-.89-.23-1.66.01-.33.49-.37.73-.35zm-68.14-.42c.36.43.36 1 .38 1.98.01.43-.48.47-.73.46a3.5 3.5 0 0 1 .35-2.44z"/>
  <path fill="#E23939" d="M75.54 106.57c-.08.05-.11-.16-.11-.16s.2.11.11.16zm67.87-.02c-.06-.08.16-.1.16-.1s-.1.18-.16.1z"/>
  <path fill="#E96868" d="M233.36 105.37c.25.02.3.2.35.38-.18-.08-.37-.15-.35-.38zm-67.63.36c-.26 0-.32-.18-.38-.35.2.06.38.12.38.35zm-68 0c-.26 0-.32-.18-.38-.35.2.06.38.12.38.35z"/>
  <path fill="#E23939" d="M211.41 106.55c-.06-.08.16-.1.16-.1s-.1.18-.16.1z"/>
  <path fill="#E96868" d="M29.34 105.72c.01-.23.2-.28.4-.33-.07.17-.14.34-.4.33z"/>
  <path fill="#FFFEFE" d="M130.84 84.24c0 .27-.18.34-.38.42.06-.2.12-.41.38-.42zm-4.69.41c0-.27.2-.33.4-.4-.07.2-.14.4-.4.4z"/>
  <path fill="#DC0F0F" d="M112.4 104.96c-.27-1.02-.34-2.05-.46-3.46.15-.66.34-.94.8-1.21.26.01.24.4.25 1V105s-.4-.04-.6-.04z"/>
  <path fill="#F8CDCD" d="M113.32 104.89c-.33-.93-.32-1.97-.3-3.41.23.84.43 2.06.3 3.4z"/>
  <path fill="#DA0202" d="M197.07 103.14c-.02.41-.04.82-.1 1.53a6.61 6.61 0 0 1-.98-2.33c.05-.29.51-.3.76-.01.28.46.3.64.32.81zm-136 0c-.02.41-.04.82-.1 1.53a6.6 6.6 0 0 1-.98-2.33c.05-.29.51-.3.76-.01.28.46.3.64.32.81z"/>
  <path fill="#24A041" d="M135.14 43.37c.48-.35.92-.37 1.68-.46.89.72 1.45 1.5 2.01 2.28-.75.32-1.5.64-2.55.9a7.3 7.3 0 0 1-1.14-2.72z"/>
  <path fill="#DC0F0F" d="M248.89 104.94s-.43.05-.64 0c-.22-1.05-.24-2.06-.31-3.45.14-.66.33-.94.78-1.25.25-.02.27.43.28 1.04-.03 1.62-.07 2.64-.11 3.66z"/>
  <path fill="#DA0202" d="M239.88 104.06a7.8 7.8 0 0 1-2.75.31c.11-.34.29-.36 1.02-.38.95.02 1.34.05 1.73.07z"/>
  <path fill="#FFF" d="M240.12 104.03c-.63 0-1.02-.02-1.7-.09a6.16 6.16 0 0 1 2.15-.92c.33 0 .39.48.33.71-.06.23-.54.26-.78.3z"/>
  <path fill="#DA0202" d="M103.88 104.06a7.8 7.8 0 0 1-2.75.31c.11-.34.29-.35 1.02-.38.95.02 1.34.05 1.73.07z"/>
  <path fill="#FFF" d="M104.12 104.03c-.63 0-1.02-.02-1.7-.09a6.16 6.16 0 0 1 2.15-.92c.33 0 .39.48.33.71-.06.23-.54.26-.78.3z"/>
  <path fill="#DA0202" d="M35.88 104.06a7.8 7.8 0 0 1-2.75.31c.11-.34.29-.35 1.02-.38.95.02 1.34.05 1.73.07z"/>
  <path fill="#FFF" d="M36.12 104.03c-.63 0-1.02-.02-1.7-.09a6.16 6.16 0 0 1 2.15-.92c.33 0 .39.48.33.71-.06.23-.54.26-.78.3z"/>
  <path fill="#DA0202" d="M171.88 104.06a7.8 7.8 0 0 1-2.75.31c.11-.34.29-.35 1.02-.38.95.02 1.34.05 1.73.07z"/>
  <path fill="#FFF" d="M172.12 104.03c-.63 0-1.02-.02-1.7-.09a6.16 6.16 0 0 1 2.15-.92c.33 0 .39.48.33.71-.06.23-.54.26-.78.3z"/>
  <path fill="#DE1A1A" d="M19.88 102.5c-1.06.33-2.12.44-3.52.77-.78.2-1.23.17-2.39-.07a12.6 12.6 0 0 0-2.88-.03l-.09-.8c2.6-.68 5.22-1.1 7.94-1.9.39-.17.7.05 1.12.67.13.41.07.71.07.71s-.24.4-.25.64z"/>
  <path fill="#DF1E1E" d="M61.45 103.08c-.4-.11-.42-.29-.47-.72.75-.3 1.51-.35 2.66-.45.61-.03.85 0 1.35.31.16.43.05.58-.05.74-1.03.02-2.07.04-3.49.12zm136 0c-.4-.11-.42-.29-.47-.72.75-.3 1.51-.35 2.66-.45.61-.03.85 0 1.35.31.16.43.05.58-.05.74a85.8 85.8 0 0 0-3.49.12z"/>
  <path fill="#DE1A1A" d="M87.88 102.5c-1.06.33-2.12.44-3.52.77-.78.2-1.23.17-2.39-.07-1.43-.15-2.15-.1-2.91-.29-.05-.42-.06-.6.35-.82l7.44-.98.16-.8c.35-.04.64.2 1.06.84.12.4.06.7.06.7s-.24.4-.25.64z"/>
  <path fill="#FFF" d="M88.24 101.8c-.11.05-.05-.25-.03-.4.01-.15.25.1.25.1s-.12.26-.22.3z"/>
  <path fill="#DE1A1A" d="M155.88 102.5c-1.06.33-2.12.44-3.52.77-.78.2-1.23.17-2.39-.07-1.43-.15-2.15-.1-2.91-.29-.05-.42-.06-.6.35-.82l7.44-.98.16-.8c.35-.04.64.2 1.06.84.12.4.06.7.06.7s-.24.4-.25.64z"/>
  <path fill="#FFF" d="M156.24 101.8c-.11.05-.05-.25-.03-.4.01-.15.25.1.25.1s-.12.26-.22.3zm68 0c-.11.05-.05-.25-.03-.4.01-.15.25.1.25.1s-.12.26-.22.3zm-204 0c-.11.05-.05-.25-.03-.4.01-.15.25.1.25.1s-.12.26-.22.3z"/>
  <path fill="#F5BDBD" d="M154.4 101.08a97 97 0 0 1-7.23.95c-.67 0-1.15.12-1.56.06-1.78-.11-3.15-.17-4.52-.22 0 0-.05-.37-.05-.56 4.3-.21 8.6-.24 13.36-.23zm-68 0a95 95 0 0 1-7.23.95c-.67 0-1.15.12-1.56.06-1.77-.1-3.14-.16-4.51-.22 0 0-.06-.37-.05-.56 4.3-.21 8.6-.24 13.35-.23zm114.83 1.94c-.19-.22-.08-.37.11-.8.44-.52.78-.77 1.33-1.07.23.41.25.86.16 1.63-.52.31-.91.31-1.6.24z"/>
  <path fill="#DF1E1E" d="M209.5 103.07c-.6.04-.79.03-1.25.1-.1-.28.08-.65.55-1.17 1.66-.08 3.03-.02 4.8.33.4.3.35.78.35.78-1.35-.03-2.7-.07-4.46-.04z"/>
  <path fill="#DB0808" d="M213.98 103.4c-.03-.29.02-.77.03-1 .01-.25.5-.37.73-.31.26.23.27.4.43 1.09.7.62 1.24.73 1.8.84-.73.32-1.46.64-2.55.9-.37-.44-.39-.83-.44-1.52z"/>
  <path fill="#DF1E1E" d="M140.8 102c1.66-.08 3.03-.02 4.8.33.4.3.35.78.35.78-1.35-.03-2.7-.07-4.46-.04-.59.04-.78.03-1.24.1-.1-.28.08-.65.55-1.17z"/>
  <path fill="#FDEEEE" d="M217.16 103.93a3.84 3.84 0 0 1-1.96-.5 4.45 4.45 0 0 1 2.41-.31c.2.38 0 .58-.45.8z"/>
  <path fill="#F8CDCD" d="M249.2 104.94a10.72 10.72 0 0 1-.16-3.44c.37.64.7 1.67 1.08 3.05-.17.37-.38.38-.91.4z"/>
  <path fill="#F5BDBD" d="M65.38 103c-.34-.2-.23-.35-.04-.78.44-.52.78-.77 1.33-1.07.23.44.26.92.16 1.6-.42.25-.71.28-1.45.26z"/>
  <path fill="#DF1E1E" d="M72.78 101.84c1.69.09 3.06.14 4.82.5.4.3.35.77.35.77-1.35-.03-2.7-.07-4.45-.04-.62.07-.83.09-1.3.28-.43-.15-.61-.5-.53-1.35.43-.41.62-.3 1.11-.16z"/>
  <path fill="#F5BDBD" d="M133.17 103.09c-.12-.29-.02-.45.18-.87.43-.52.77-.77 1.32-1.07.23.72.26 1.47.16 2.58a.5.5 0 0 1-.65.33c-.38-.33-.58-.59-1.01-.97z"/>
  <path fill="#FDEEEE" d="M11.2 103.43a4.45 4.45 0 0 1 2.41-.31c.2.38 0 .58-.45.8a3.85 3.85 0 0 1-1.96-.49z"/>
  <path fill="#DB0808" d="M77.98 103.4c-.03-.29.02-.77.03-1 .01-.25.5-.37.73-.31.26.23.27.4.43 1.09.7.62 1.24.73 1.8.84-.73.32-1.46.64-2.55.9-.37-.44-.39-.83-.44-1.52z"/>
  <path fill="#FDEEEE" d="M81.16 103.93a3.84 3.84 0 0 1-1.96-.5 4.45 4.45 0 0 1 2.41-.31c.2.38 0 .58-.45.8z"/>
  <path fill="#DB0808" d="M145.98 103.4c-.03-.29.02-.77.03-1 .01-.25.5-.37.73-.31.26.23.27.4.43 1.09.7.62 1.24.73 1.8.84-.73.32-1.46.64-2.55.9-.37-.44-.39-.83-.44-1.52z"/>
  <path fill="#FDEEEE" d="M149.16 103.93a3.84 3.84 0 0 1-1.96-.5 4.45 4.45 0 0 1 2.41-.31c.2.38 0 .58-.45.8z"/>
</svg>
